<svg width="150" height="150" viewBox="0 0 150 150" fill="none" xmlns="http://www.w3.org/2000/svg">
<path d="M93.355 103.985L93.3583 103.981C93.5076 103.79 93.6927 103.632 93.9031 103.514C94.1136 103.395 94.3451 103.32 94.5845 103.292C94.8239 103.264 95.0666 103.283 95.2986 103.349C95.5306 103.414 95.7474 103.525 95.9366 103.675C96.1259 103.826 96.2838 104.012 96.4012 104.223C96.5186 104.434 96.5933 104.667 96.6207 104.908C96.6482 105.148 96.628 105.392 96.5612 105.624C96.4945 105.857 96.3825 106.074 96.2319 106.263L96.2285 106.267C93.3046 109.965 88.5449 112.203 83.3418 113.502C78.1668 114.793 72.7582 115.104 68.785 115.104C65.9347 115.104 63.8558 114.944 63.1871 114.884C62.7133 114.832 62.2779 114.596 61.9741 114.227C61.668 113.855 61.52 113.377 61.5623 112.897C61.6046 112.416 61.8337 111.972 62.1998 111.659C62.5634 111.349 63.0331 111.193 63.5089 111.225C66.634 111.494 72.4937 111.584 78.3091 110.71C81.2232 110.272 84.1745 109.585 86.7836 108.53C89.3813 107.479 91.7432 106.023 93.355 103.985Z" stroke="#05668D" stroke-width="3" stroke-linecap="round"/>
<path d="M112.333 47.3493C112.333 48.8265 111.138 50.021 109.667 50.021C108.196 50.021 107 48.8265 107 47.3493C107 45.872 108.196 44.6776 109.667 44.6776C111.138 44.6776 112.333 45.872 112.333 47.3493Z" stroke="#05668D" stroke-width="3" stroke-linecap="round"/>
<path d="M45.6666 47.3493C45.6666 48.8265 44.471 50.021 42.9999 50.021C41.5289 50.021 40.3332 48.8265 40.3332 47.3493C40.3332 45.872 41.5289 44.6776 42.9999 44.6776C44.471 44.6776 45.6666 45.872 45.6666 47.3493Z" stroke="#05668D" stroke-width="3" stroke-linecap="round"/>
<path d="M146.045 55.7876L145.902 56.2089L146.011 56.6401C147.506 62.5089 148.5 68.6251 148.5 74.8957C148.5 115.54 115.591 148.5 75 148.5C34.4078 148.5 1.5 115.579 1.5 74.9341C1.50374 69.4331 2.12232 63.9503 3.34419 58.5871L3.45842 58.0857L3.24101 57.6197C2.13308 55.2449 1.5 52.6204 1.5 49.852V34.6253C1.5 24.459 9.80961 16.3096 20 16.3096H30.4H30.9278L31.3393 15.9791C43.5035 6.20992 58.5838 1.5 75 1.5C91.4693 1.5 106.6 6.21072 118.783 15.9799L119.195 16.3096H119.722H128.75C138.899 16.3096 146.833 24.4178 146.833 34.6253V49.852C146.833 52.0257 146.653 53.9952 146.045 55.7876ZM141.916 45.3544L144.833 44.8643V34.6253C144.833 25.5449 137.88 18.3157 128.75 18.3157H125.75H121.757L124.762 20.9446C132.244 27.4896 138.686 36.0119 141.916 45.3544ZM143.773 56.7537L143.998 56.2567L143.851 55.7311C139.688 40.8263 130.802 27.1651 118.831 18.596L118.44 18.3157H117.958H103.333C94.259 18.3157 86.8333 25.4896 86.8333 34.6253V49.852C86.8333 58.9605 94.2315 66.3702 103.333 66.3702H128.75C135.417 66.3702 141.175 62.4874 143.773 56.7537ZM110.65 16.3096H115.785L111.457 13.5455C100.732 6.69485 88.256 3.50606 75 3.50606C61.7977 3.50606 49.3694 6.6955 38.6742 13.5465L34.3608 16.3096H39.4833H45.4167C55.5659 16.3096 63.5 24.4178 63.5 34.6253V41.4469V44.0474L65.7511 42.7453C70.1754 40.186 76.554 38.574 82.5806 42.0702L84.8333 43.377V40.7727V34.6253C84.8333 24.459 93.143 16.3096 103.333 16.3096H110.65ZM32.1233 18.3157H31.5834L31.1674 18.6597C18.862 28.8362 9.7019 41.6563 5.70982 57.316L5.55479 57.9241L5.87903 58.4615C8.77677 63.2638 14.0222 66.3702 20 66.3702H45.4167C54.5732 66.3702 61.5 58.9046 61.5 49.852V34.6253C61.5 25.5449 54.5462 18.3157 45.4167 18.3157H32.1233ZM25.3862 20.8841L27.9925 18.3157H24.3333H20C10.9257 18.3157 3.5 25.4896 3.5 34.6253V47.9831L6.40004 48.5215C10.5018 37.8555 17.0221 29.1265 25.3862 20.8841ZM6.91914 62.9137L4.83146 60.8056L4.37147 63.7366C3.80134 67.3694 3.5 71.0899 3.5 74.8824C3.5 114.354 35.5715 146.467 75 146.467C114.428 146.467 146.5 114.354 146.5 74.8824C146.5 70.6759 146.117 66.5648 145.419 62.5636L144.872 59.4211L142.801 61.8472C139.394 65.8378 134.353 68.3763 128.75 68.3763H103.333C93.1635 68.3763 84.8333 60.0387 84.8333 49.852V46.9585V46.2991L84.3475 45.8533C79.6743 41.5654 74.6505 41.5853 70.8195 42.7398C67.064 43.8716 64.3864 46.097 64.0252 46.4058L63.5 46.8549V47.5459V49.852C63.5 60.0802 55.5456 68.3763 45.4167 68.3763H20.0009C17.5684 68.3749 15.1602 67.8915 12.915 66.954C10.6699 66.0165 8.63209 64.6434 6.91914 62.9137Z" stroke="#05668D" stroke-width="3" stroke-linecap="round"/>
</svg>
