<svg width="100" height="100" viewBox="0 0 100 100" fill="none" xmlns="http://www.w3.org/2000/svg">
<g clip-path="url(#clip0)">
<path d="M80.5066 23.317C83.4179 24.1594 85.551 26.651 85.9344 29.6579C86.3178 32.6647 84.8783 35.6121 82.2717 37.1585C85.8749 39.3568 87.8361 43.4777 87.2703 47.6604C86.7044 51.8432 83.7185 55.2953 79.6603 56.4567V60.3172C79.6611 63.3337 77.9579 66.0922 75.2613 67.4441C72.5639 68.7968 69.3352 68.5107 66.9175 66.7054C70.3327 62.6296 72.1371 57.4446 71.99 52.1293C71.7119 41.3332 63.5313 32.471 53.076 31.0676L53.0889 30.9768V6.64147C53.0905 3.85484 54.8322 1.3656 57.4501 0.409133C60.0671 -0.548142 63.004 0.230699 64.8028 2.35905C66.6024 4.4874 66.8814 7.51194 65.5021 9.93366L65.5656 10.0494C69.4976 7.92346 74.3394 8.48448 77.6814 11.452C81.0235 14.4202 82.1519 19.1616 80.5066 23.317Z" fill="#EC7063"/>
<path d="M39.638 60.502C41.1603 60.5012 42.4704 59.4257 42.767 57.9324C43.0636 56.439 42.2638 54.944 40.8573 54.3621C39.4507 53.7793 37.8279 54.272 36.9823 55.538C36.1368 56.8047 36.304 58.4918 37.381 59.568C37.9782 60.1676 38.7908 60.5036 39.638 60.502ZM60.8395 60.502C62.3618 60.5012 63.6719 59.4257 63.9685 57.9324C64.2651 56.439 63.4653 54.944 62.0588 54.3621C60.6522 53.7793 59.0302 54.272 58.1847 55.538C57.3391 56.8047 57.5055 58.4918 58.5825 59.568C59.1805 60.1668 59.9931 60.5036 60.8395 60.502ZM50.2387 50.2959C51.7618 50.2967 53.0744 49.2212 53.3726 47.727C53.67 46.2329 52.871 44.7363 51.4636 44.1527C50.0563 43.5692 48.4327 44.0611 47.5863 45.327C46.7392 46.5937 46.9047 48.2824 47.9818 49.3603C48.5798 49.9599 49.3916 50.2967 50.2387 50.2959ZM71.99 52.1292C72.1371 57.4445 70.3326 62.6295 66.9175 66.7054C66.3356 67.403 65.7102 68.0629 65.0455 68.681C61.8426 71.63 60.0108 75.7782 59.9899 80.1313V80.1482H40.3396C40.3404 78.0142 39.9048 75.9036 39.0593 73.944C38.2161 71.9877 36.9695 70.2306 35.4014 68.7879C34.6932 68.1377 34.0285 67.4424 33.4113 66.7054C27.6379 59.7931 26.7007 50.0451 31.0522 42.1594C35.403 34.2738 44.1495 29.8684 53.076 31.0676C63.5312 32.4709 71.7119 41.3332 71.99 52.1292Z" fill="#EFE3D8"/>
<path d="M60.8394 60.502C59.3171 60.5012 58.007 59.4257 57.7104 57.9324C57.4138 56.439 58.2136 54.944 59.6201 54.3621C61.0267 53.7794 62.6495 54.2721 63.4951 55.538C64.3398 56.8047 64.1734 58.4918 63.0964 59.568C62.4984 60.1668 61.6866 60.5036 60.8394 60.502Z" fill="white"/>
<path d="M59.9899 89.6028V91.0471C59.9891 92.9022 58.4844 94.406 56.6294 94.4052H43.6993C41.8443 94.406 40.3404 92.9022 40.3396 91.0471V80.1482H59.9899V89.6028Z" fill="#DBDEE3"/>
<path d="M50.2387 50.2959C48.7148 50.2967 47.4031 49.2213 47.1049 47.7271C46.8075 46.2329 47.6064 44.7363 49.0138 44.1528C50.4204 43.5693 52.0448 44.0612 52.8911 45.3271C53.7383 46.5938 53.5727 48.2825 52.4957 49.3603C51.8977 49.9599 51.0859 50.2967 50.2387 50.2959Z" fill="white"/>
<path d="M19.8229 23.3169C18.1736 19.1607 19.3021 14.4177 22.6449 11.4486C25.9878 8.47957 30.8312 7.92015 34.7632 10.0493L34.8275 9.93356C33.4458 7.51184 33.7239 4.48489 35.5235 2.35493C37.3232 0.225782 40.2617 -0.553862 42.8803 0.404216C45.4982 1.3623 47.2399 3.85314 47.2407 6.64137V30.9767L47.2528 31.0676C39.3735 32.1293 32.6935 37.3899 29.8145 44.8013C26.9362 52.2136 28.3138 60.604 33.4113 66.7053C30.9944 68.5106 27.7649 68.7967 25.0683 67.444C22.3709 66.0921 20.6685 63.3336 20.6685 60.3171V56.4566C16.6111 55.2952 13.6244 51.8431 13.0585 47.6603C12.4927 43.4776 14.4547 39.3567 18.0579 37.1584C15.4513 35.6112 14.0126 32.6638 14.396 29.6578C14.7794 26.6517 16.9117 24.1601 19.8229 23.3169Z" fill="#EC7063"/>
<path d="M39.638 60.502C38.1149 60.502 36.804 59.4274 36.5074 57.934C36.21 56.4406 37.0089 54.9448 38.4155 54.3621C39.8221 53.7794 41.4449 54.2721 42.2904 55.538C43.1368 56.8039 42.9704 58.491 41.8933 59.568C41.2954 60.1668 40.4844 60.5036 39.638 60.502Z" fill="white"/>
<path d="M73.2318 30.7324C72.8573 30.5492 72.5285 30.2823 72.2729 29.9528C72.2657 29.9439 72.2593 29.9343 72.252 29.9263C71.7352 29.2551 71.5576 28.383 71.7714 27.5632C71.9418 26.9033 71.5447 26.2298 70.8848 26.0594C70.2242 25.889 69.5506 26.286 69.3802 26.9459C69.0201 28.3244 69.242 29.7904 69.9959 30.9993C69.8785 31.5185 69.6141 31.9935 69.2347 32.3657C68.9124 32.6727 68.7798 33.1292 68.8883 33.5609C68.9968 33.9925 69.3288 34.3325 69.758 34.4506C70.1864 34.5688 70.6461 34.4466 70.9596 34.1315C71.347 33.7521 71.6717 33.3141 71.9241 32.8334C72.0005 32.8752 72.0768 32.9162 72.1556 32.954C72.7689 33.2522 73.5075 32.9958 73.8049 32.3817C74.1023 31.7685 73.8459 31.0298 73.2326 30.7324H73.2318Z" fill="white"/>
<path d="M70.8093 18.386C70.978 17.7261 70.5802 17.0534 69.9195 16.8846C67.3756 16.2335 64.7039 17.3146 63.3287 19.5514C62.6375 19.7347 61.9069 19.7025 61.2349 19.4598C60.7358 19.2822 60.2841 18.992 59.9143 18.6135C59.6073 18.2944 59.1532 18.165 58.724 18.2735C58.2948 18.382 57.9564 18.7123 57.8374 19.1383C57.7177 19.5643 57.8366 20.0224 58.1469 20.3375C58.777 20.9837 59.5462 21.478 60.3958 21.7819C61.0492 22.019 61.7389 22.1395 62.4333 22.1395H62.4631C62.3497 23.3355 62.5989 24.5388 63.1792 25.5909C63.5071 26.1889 64.2578 26.4075 64.855 26.0787C65.453 25.7508 65.6716 25.0001 65.3437 24.4029C65.1693 24.087 65.0447 23.747 64.9732 23.3942C64.8181 22.6346 64.9193 21.8446 65.2625 21.1485L65.2674 21.1389C65.2698 21.1348 65.2722 21.1316 65.2746 21.1268C66.0132 19.6366 67.6939 18.8658 69.3062 19.2774C69.6237 19.3585 69.9605 19.3103 70.2426 19.1431C70.5239 18.9759 70.7281 18.7043 70.8093 18.386Z" fill="white"/>
<path d="M30.3329 30.9985C31.086 29.7896 31.3086 28.3244 30.9486 26.9467C30.7782 26.286 30.1046 25.889 29.4439 26.0594C28.784 26.2306 28.387 26.9033 28.5574 27.564C28.8821 28.8323 28.272 30.1553 27.0969 30.7324C26.4829 31.0298 26.2265 31.7685 26.5239 32.3825C26.8221 32.9958 27.5607 33.2522 28.174 32.9548C28.2519 32.917 28.3291 32.876 28.4055 32.8342C28.657 33.3141 28.9826 33.7521 29.3692 34.1323C29.8587 34.5985 30.6311 34.584 31.1037 34.101C31.5755 33.6179 31.5715 32.8447 31.0948 32.3665C30.7147 31.9935 30.4502 31.5185 30.3329 30.9985Z" fill="white"/>
<path d="M43.0604 18.6134C42.6906 18.9928 42.2381 19.283 41.7382 19.4606C41.0662 19.7025 40.3364 19.7339 39.6452 19.5514C38.27 17.3154 35.5991 16.2343 33.0552 16.8846C32.6268 16.9931 32.2884 17.3218 32.1695 17.7478C32.0497 18.1738 32.167 18.6303 32.4773 18.9462C32.7867 19.2613 33.2417 19.3875 33.6693 19.2757C35.2816 18.865 36.9615 19.6374 37.7009 21.1276C37.7033 21.1332 37.7073 21.138 37.7098 21.1429C38.0546 21.8397 38.1574 22.6314 38.0015 23.3926C37.93 23.7462 37.8054 24.0862 37.631 24.4021C37.3031 24.9993 37.5209 25.75 38.1189 26.0787C38.7161 26.4067 39.4668 26.1889 39.7955 25.5909C40.375 24.5387 40.625 23.3355 40.5116 22.1395H40.5406C41.235 22.1395 41.923 22.019 42.5757 21.7827C43.4269 21.4788 44.1977 20.9845 44.8278 20.3367C45.1421 20.0224 45.2627 19.5635 45.1437 19.1343C45.0247 18.7059 44.6848 18.3747 44.2539 18.267C43.8223 18.1585 43.3666 18.2911 43.0596 18.6134H43.0604Z" fill="white"/>
<path d="M59.9899 86.0326H50.3231C49.6415 86.0326 49.0886 85.4804 49.0886 84.798C49.0886 84.1165 49.6415 83.5635 50.3231 83.5635H59.9899C60.6715 83.5635 61.2245 84.1165 61.2245 84.798C61.2245 85.4804 60.6715 86.0326 59.9899 86.0326Z" fill="#40596B"/>
<path d="M44.2017 86.0326H40.4216C39.7401 86.0326 39.1871 85.4804 39.1871 84.798C39.1871 84.1165 39.7401 83.5635 40.4216 83.5635H44.2017C44.8833 83.5635 45.4363 84.1165 45.4363 84.798C45.4363 85.4804 44.8833 86.0326 44.2017 86.0326Z" fill="#40596B"/>
<path d="M59.9899 90.8374H56.4091C55.7275 90.8374 55.1746 90.2844 55.1746 89.6029C55.1746 88.9213 55.7275 88.3683 56.4091 88.3683H59.9899C60.6715 88.3683 61.2244 88.9213 61.2244 89.6029C61.2244 90.2844 60.6715 90.8374 59.9899 90.8374Z" fill="#40596B"/>
<path d="M50.8166 90.8374H40.4216C39.7401 90.8374 39.1871 90.2844 39.1871 89.6029C39.1871 88.9213 39.7401 88.3683 40.4216 88.3683H50.8166C51.499 88.3683 52.0512 88.9213 52.0512 89.6029C52.0512 90.2844 51.499 90.8374 50.8166 90.8374Z" fill="#40596B"/>
<path d="M50.1647 100C49.4823 100 48.9301 99.4472 48.9301 98.7656V94.4052C48.9301 93.7236 49.4823 93.1707 50.1647 93.1707C50.8463 93.1707 51.3992 93.7236 51.3992 94.4052V98.7656C51.3992 99.4472 50.8463 100 50.1647 100Z" fill="#EC7063"/>
<path d="M51.4732 80.1314H49.0041V50.2959L51.4732 50.2903V80.1314Z" fill="#EC7063"/>
<path d="M47.3741 80.1313H44.905V68.5122C44.9041 67.399 44.0023 66.4972 42.8891 66.4956C40.4119 66.4948 38.4042 64.487 38.4034 62.0098V60.5019L40.8725 60.4979V62.0098C40.8733 63.1238 41.7751 64.0256 42.8891 64.0264C45.3647 64.0296 47.3717 66.0358 47.3741 68.5122V80.1313Z" fill="#EC7063"/>
<path d="M55.5716 80.1313H53.1024V68.5122C53.1057 66.0358 55.1126 64.0296 57.5882 64.0264C58.7014 64.0256 59.604 63.1238 59.6048 62.0098V60.5019L62.074 60.4979V62.0098C62.0732 64.487 60.0654 66.4948 57.5882 66.4956C56.475 66.4972 55.5732 67.399 55.5716 68.5122V80.1313Z" fill="#EC7063"/>
<path d="M50.2387 51.5305C48.1248 51.5321 46.3051 50.0404 45.892 47.9675C45.4788 45.8946 46.5872 43.8193 48.5396 43.0091C50.4911 42.1997 52.744 42.8821 53.9183 44.6391C55.0934 46.3961 54.8627 48.7383 53.3685 50.2325C52.5407 51.066 51.4138 51.5338 50.2387 51.5305ZM50.2387 45.1471C49.3063 45.1487 48.505 45.8094 48.3241 46.7241C48.1441 47.6387 48.6344 48.5534 49.4968 48.9095C50.3585 49.2647 51.3519 48.9617 51.8687 48.1861C52.3856 47.4105 52.2827 46.3768 51.6228 45.7186C51.2555 45.3521 50.7579 45.1463 50.2387 45.1471Z" fill="#40596B"/>
<path d="M39.638 61.7365C37.5265 61.7365 35.7084 60.2455 35.2961 58.1742C34.8846 56.1038 35.9921 54.0301 37.9437 53.2215C39.8944 52.4137 42.1441 53.0961 43.3176 54.8515C44.4903 56.6069 44.2596 58.9467 42.767 60.44C41.9391 61.2727 40.8123 61.7397 39.638 61.7365ZM39.638 55.3531C38.7522 55.3523 37.9766 55.947 37.7476 56.8022C37.5177 57.6574 37.8906 58.5609 38.6574 59.0045C39.4234 59.4482 40.3927 59.3212 41.0196 58.6967L41.0213 58.6943C41.5807 58.1349 41.7487 57.2933 41.4456 56.5619C41.1426 55.8305 40.4297 55.3531 39.638 55.3531Z" fill="#40596B"/>
<path d="M60.8395 61.7365C59.6652 61.7397 58.5375 61.2727 57.7096 60.44C56.2155 58.9467 55.984 56.6053 57.1575 54.8483C58.3309 53.0913 60.5823 52.4081 62.5346 53.2167C64.4869 54.0253 65.5953 56.0998 65.1838 58.1718C64.7714 60.2447 62.9525 61.7365 60.8395 61.7365ZM60.8395 55.3539C60.0478 55.3531 59.3332 55.8297 59.0302 56.5611C58.7272 57.2933 58.8952 58.1349 59.4554 58.6943C60.0815 59.322 61.0509 59.4498 61.8184 59.0069C62.586 58.5641 62.9606 57.6607 62.7315 56.8047C62.5016 55.9487 61.726 55.3531 60.8395 55.3539Z" fill="#40596B"/>
</g>
<defs>
<clipPath id="clip0">
<rect width="100" height="100" fill="white"/>
</clipPath>
</defs>
</svg>
