<svg width="100" height="100" viewBox="0 0 100 100" fill="none" xmlns="http://www.w3.org/2000/svg">
<path d="M50 96.3051C76.5939 96.3051 98.1525 74.7465 98.1525 48.1525C98.1525 21.5586 76.5939 0 50 0C23.4061 0 1.84747 21.5586 1.84747 48.1525C1.84747 74.7465 23.4061 96.3051 50 96.3051Z" fill="#EC7063"/>
<path d="M50 86.9097C71.4051 86.9097 88.7573 69.5575 88.7573 48.1525C88.7573 26.7475 71.4051 9.39526 50 9.39526C28.595 9.39526 11.2428 26.7475 11.2428 48.1525C11.2428 69.5575 28.595 86.9097 50 86.9097Z" fill="#F7F4F7"/>
<path d="M43.6352 66.7343C43.46 66.7343 43.2821 66.7036 43.1082 66.6388C42.3274 66.3477 41.9303 65.4786 42.2215 64.6975L48.4911 47.8804V22.5056C48.4911 21.6722 49.1666 20.9966 50 20.9966C50.8336 20.9966 51.509 21.6722 51.509 22.5056V48.1524C51.509 48.3325 51.4768 48.511 51.4139 48.6796L45.0493 65.7516C44.8229 66.3591 44.2473 66.7343 43.6352 66.7343Z" fill="#40596B"/>
<path d="M50 52.1144C52.1881 52.1144 53.9619 50.3406 53.9619 48.1525C53.9619 45.9644 52.1881 44.1906 50 44.1906C47.8119 44.1906 46.0381 45.9644 46.0381 48.1525C46.0381 50.3406 47.8119 52.1144 50 52.1144Z" fill="#BCD6F9"/>
<path d="M50 9.39514C49.4943 9.39514 48.9918 9.40803 48.491 9.42717V12.4125C48.491 13.2459 49.1666 13.9215 50 13.9215C50.8336 13.9215 51.509 13.2459 51.509 12.4125V9.42717C51.0082 9.40803 50.5057 9.39514 50 9.39514Z" fill="#A096A3"/>
<path d="M50 82.3835C49.1666 82.3835 48.491 83.0591 48.491 83.8925V86.8779C48.992 86.897 49.4945 86.9099 50 86.9099C50.5055 86.9099 51.0082 86.897 51.509 86.8779V83.8925C51.509 83.0591 50.8336 82.3835 50 82.3835Z" fill="#A096A3"/>
<path d="M88.7252 46.6434H85.7401C84.9065 46.6434 84.2311 47.319 84.2311 48.1524C84.2311 48.9858 84.9067 49.6614 85.7401 49.6614H88.7252C88.7444 49.1604 88.7573 48.6579 88.7573 48.1522C88.7573 47.6469 88.7444 47.1444 88.7252 46.6434Z" fill="#A096A3"/>
<path d="M11.2748 49.6624H14.2602C15.0936 49.6624 15.7692 48.9868 15.7692 48.1534C15.7692 47.32 15.0936 46.6444 14.2602 46.6444H11.2748C11.2557 47.1454 11.2428 47.6479 11.2428 48.1534C11.2428 48.6589 11.2555 49.1614 11.2748 49.6624Z" fill="#A096A3"/>
<path d="M70.9272 52.793C69.1346 60.5497 65.5469 78.3415 68.1262 86.8344H75.5553C78.1348 78.3415 74.5469 60.5497 72.7543 52.793C72.5451 51.8882 71.1361 51.8882 70.9272 52.793Z" fill="#BADD93"/>
<path d="M75.7385 83.6229L58.3061 61.4868C57.5844 60.5702 56.126 61.3192 56.4522 62.4391C58.4734 69.3809 62.3242 81.3723 65.8078 85.2356C66.7996 86.3354 71.0846 87.9276 71.0846 87.9276L76.5588 86.152L75.7385 83.6229Z" fill="#C9E5AD"/>
<path d="M68.1422 83.5364L86.1252 61.4418C86.8697 60.527 88.3318 61.3079 87.9838 62.4348C85.8274 69.4196 81.7397 81.4795 78.1551 85.3284C77.1346 86.4241 72.777 87.9639 72.777 87.9639L67.1483 87.4598L68.1422 83.5364Z" fill="#A8D680"/>
<path d="M74.3492 80.623H57.4312C56.4502 80.623 55.7994 81.6396 56.2103 82.5307L62.2016 95.5234C62.4213 95.9998 62.8978 96.3049 63.4225 96.3049H69.1303L75.5187 82.4504C75.9125 81.5971 75.2891 80.623 74.3492 80.623Z" fill="#EFC984"/>
<path d="M86.25 80.623H73.6449C74.5848 80.623 75.2082 81.5971 74.8147 82.4506L68.4262 96.3051H80.2588C80.7834 96.3051 81.2602 96 81.4797 95.5236L87.4709 82.5309C87.8818 81.6396 87.2311 80.623 86.25 80.623Z" fill="#E8AE4D"/>
<path d="M7.20743 93.2624C5.34689 93.2624 3.83868 94.7706 3.83868 96.6312C3.83868 98.4917 5.34689 99.9999 7.20743 99.9999H83.432L84.1363 99.0944V93.9972L83.432 93.2622H7.20743V93.2624Z" fill="#40596B"/>
<path d="M92.7926 93.2625H83.432V100H92.7926C94.6531 100 96.1613 98.4919 96.1613 96.6314C96.1613 94.7707 94.6531 93.2625 92.7926 93.2625Z" fill="#40596B"/>
<path d="M76.3158 19.7024L72.9242 23.094C72.335 23.6833 72.335 24.6387 72.9242 25.2282C73.2189 25.5229 73.6053 25.6702 73.9914 25.6702C74.3775 25.6702 74.7639 25.5227 75.0586 25.2282L78.4502 21.8366C77.7664 21.0979 77.0545 20.386 76.3158 19.7024Z" fill="#A096A3"/>
<path d="M24.9414 71.0771L21.5498 74.4685C22.2334 75.2072 22.9453 75.9191 23.6838 76.6027L27.0754 73.2113C27.6648 72.622 27.6648 71.6666 27.0754 71.0771C26.4863 70.4876 25.5309 70.4876 24.9414 71.0771Z" fill="#A096A3"/>
<path d="M21.5508 21.8366L24.9424 25.2282C25.2371 25.5229 25.6233 25.6702 26.0094 25.6702C26.3955 25.6702 26.7819 25.5227 27.0764 25.2282C27.6658 24.6389 27.6658 23.6835 27.0764 23.094L23.6848 19.7024C22.9461 20.386 22.2344 21.0979 21.5508 21.8366Z" fill="#A096A3"/>
</svg>
