<svg id="Capa_1" enable-background="new 0 0 512 512" height="512" viewBox="0 0 512 512" width="512" xmlns="http://www.w3.org/2000/svg"><g><path d="m352.996 325.042 58.048 155.522c2.525 6.765-2.477 13.971-9.698 13.971h-34.542c-3.131 0-6.094-1.417-8.059-3.855l-133.54-165.688z" fill="#da4a54"/><path d="m293.098 324.927h-88.748v-104.432l-85.887 178.215c-1.325 2.749.678 5.938 3.73 5.938h78.016c2.287 0 4.14 1.854 4.14 4.14v82.024c0 4.401 5.958 5.763 7.87 1.799z" fill="#ffe07d"/><path d="m204.349 220.495-59.47 123.4c13.548 5.792 28.375 8.981 43.789 8.981h90.949l13.481-27.95h-88.748v-104.431z" fill="#ffd064"/><g><path d="m297.876 34.394h-65.308c-12.029-10.785-27.918-17.352-45.346-17.352-17.445 0-33.348 6.579-45.382 17.383-70.988 1.288-128.14 59.227-128.14 130.523 0 52.737 41.696 95.715 93.918 97.815 9.527 35.854 42.196 62.28 81.05 62.28h246.809c20.295 0 39.759-8.062 54.11-22.413 14.351-14.352 22.413-33.816 22.413-54.111 0-118.258-95.867-214.125-214.124-214.125z" fill="#e28086"/><path d="m406.35 63.882c32.942 35.065 53.13 82.251 53.13 134.159 0 48.454-17.593 92.794-46.728 127.001h22.725c20.295 0 39.759-8.062 54.11-22.413s22.413-33.815 22.413-54.11c0-78.669-42.432-147.416-105.65-184.637z" fill="#dd636e"/></g><path d="m322.512 383.74h85.113c16.209 0 29.349-13.14 29.349-29.349v-29.349h-143.812v29.349c0 16.209 13.14 29.349 29.35 29.349z" fill="#e28086"/><path d="m293.162 352.877h142.315c.501 0 .997-.029 1.496-.036v-27.799h-143.811z" fill="#dd636e"/><path d="m500.666 81.381h-43.942c-2.287 0-4.14-1.854-4.14-4.14v-42.071c0-4.402-5.959-5.763-7.87-1.798l-43.945 91.185c-1.325 2.749.678 5.938 3.73 5.938h43.945c2.287 0 4.14 1.854 4.14 4.14v41.99c0 4.401 5.958 5.763 7.87 1.799l43.942-91.104c1.325-2.749-.678-5.939-3.73-5.939z" fill="#ffe07d"/><path d="m100.313 227.067h-43.942c-2.287 0-4.14-1.854-4.14-4.14v-42.07c0-4.402-5.959-5.763-7.87-1.798l-43.945 91.184c-1.325 2.749.678 5.938 3.73 5.938h43.944c2.287 0 4.14 1.854 4.14 4.14v41.99c0 4.401 5.958 5.763 7.87 1.799l43.942-91.104c1.326-2.749-.677-5.939-3.729-5.939z" fill="#ffe07d"/><g fill="#da4a54"><path d="m149.638 231.855c0-4.288-3.476-7.763-7.763-7.763s-7.763 3.475-7.763 7.763c0 15.62-11.509 28.601-26.492 30.912 1.363 5.128 3.214 10.054 5.473 14.746 20.888-4.691 36.545-23.375 36.545-45.658z"/><path d="m260.231 85.004c0 4.288 3.476 7.763 7.763 7.763 4.288 0 7.763-3.475 7.763-7.763 0-19.44-7.369-37.188-19.453-50.611h-23.738c16.625 10.726 27.665 29.398 27.665 50.611z"/><path d="m135.35 59.552c0 4.288 3.476 7.763 7.763 7.763s7.763-3.475 7.763-7.763c0-9.536-3.39-18.294-9.028-25.134-.003.002-.005.004-.008.007-7.754.141-15.343.958-22.71 2.394 9.427 3.255 16.22 12.213 16.22 22.733z"/><path d="m366.751 75.212c1.076 3.267 4.111 5.337 7.372 5.337.805 0 1.624-.126 2.43-.391 4.072-1.341 6.286-5.73 4.945-9.802-2.929-8.894-7.476-17.041-13.263-24.119-13.331-4.637-27.26-7.993-41.643-9.921 18.791 5.54 33.982 20.141 40.159 38.896z"/><path d="m512 248.518c0-10.699-.796-21.211-2.31-31.489-1.2 18.562-16.674 33.298-35.533 33.298-4.287 0-7.763 3.475-7.763 7.763s3.476 7.763 7.763 7.763c14.975 0 28.468-6.47 37.83-16.761 0-.191.013-.382.013-.574z"/></g><g><path d="m360.169 246.045h-45.447c-4.287 0-7.763-3.475-7.763-7.763s3.476-7.763 7.763-7.763h45.447c13.261 0 24.049-10.789 24.049-24.049 0-5.262-1.667-10.258-4.82-14.447-2.579-3.425-1.893-8.292 1.532-10.871 3.427-2.58 8.293-1.893 10.872 1.532 5.196 6.901 7.943 15.126 7.943 23.785 0 21.822-17.754 39.576-39.576 39.576z" fill="#da4a54"/></g><g><path d="m217.59 251.351c-2.771 0-5.451-1.487-6.85-4.101-2.024-3.78-.6-8.484 3.18-10.509 7.603-4.071 16.185-6.223 24.816-6.223h27.185c4.287 0 7.763 3.475 7.763 7.763s-3.476 7.763-7.763 7.763h-27.185c-6.083 0-12.13 1.516-17.487 4.385-1.168.624-2.422.922-3.659.922z" fill="#da4a54"/></g><path d="m235.878 325.042c-8.957-.479-17.268-4.243-23.576-10.727-6.762-6.95-10.339-16.127-10.073-25.841.118-4.285-3.261-7.855-7.547-7.973-4.308-.153-7.856 3.261-7.973 7.547-.381 13.895 4.724 27.026 14.372 36.994z" fill="#da4a54"/><g><path d="m96.123 180.974c-4.287 0-7.763-3.475-7.763-7.763s3.476-7.763 7.763-7.763c27.613 0 50.077-22.465 50.077-50.077 0-4.288 3.476-7.763 7.763-7.763s7.763 3.475 7.763 7.763c.001 36.173-29.429 65.603-65.603 65.603z" fill="#da4a54"/></g><g><path d="m377.498 291.63c-4.287 0-7.763-3.475-7.763-7.763s3.476-7.763 7.763-7.763c22.75 0 42.668-15.345 48.438-37.315 1.089-4.146 5.335-6.626 9.481-5.536 4.147 1.089 6.626 5.333 5.536 9.481-7.561 28.788-33.655 48.896-63.455 48.896z" fill="#da4a54"/></g><g><path d="m246.508 180.974c-4.287 0-7.763-3.475-7.763-7.763 0-11.666-9.491-21.157-21.157-21.157-4.287 0-7.763-3.475-7.763-7.763s3.476-7.763 7.763-7.763c20.227 0 36.683 16.456 36.683 36.683 0 4.287-3.476 7.763-7.763 7.763z" fill="#da4a54"/></g><g><path d="m308.104 176.641c-4.287 0-7.763-3.475-7.763-7.763s3.476-7.763 7.763-7.763c16.475 0 29.879-13.404 29.879-29.878 0-16.476-13.404-29.879-29.879-29.879-4.287 0-7.763-3.475-7.763-7.763s3.476-7.763 7.763-7.763c25.037 0 45.406 20.369 45.406 45.406s-20.369 45.403-45.406 45.403z" fill="#da4a54"/></g></g></svg>