<svg width="78" height="78" viewBox="0 0 78 78" fill="none" xmlns="http://www.w3.org/2000/svg">
<path d="M0 29.2503L37.557 53.1524C37.986 53.4693 38.493 53.6253 39 53.6253C39.507 53.6253 40.014 53.4693 40.443 53.1524L78 29.2503L40.4625 0.487746C39.5947 -0.160629 38.4053 -0.160629 37.5375 0.487746L0 29.2503Z" fill="#64B5F6"/>
<path d="M63.375 0H14.625C11.9389 0 9.75 2.18887 9.75 4.875V58.5C9.75 59.8455 10.842 60.9375 12.1875 60.9375H65.8125C67.158 60.9375 68.25 59.8455 68.25 58.5V4.875C68.25 2.18887 66.066 0 63.375 0Z" fill="#ECEFF1"/>
<path d="M21.9375 14.625H56.0625C57.408 14.625 58.5 13.533 58.5 12.1875C58.5 10.842 57.408 9.75 56.0625 9.75H21.9375C20.592 9.75 19.5 10.842 19.5 12.1875C19.5 13.533 20.592 14.625 21.9375 14.625Z" fill="#90A4AE"/>
<path d="M56.0625 19.5H21.9375C20.592 19.5 19.5 20.592 19.5 21.9375C19.5 23.283 20.592 24.375 21.9375 24.375H56.0625C57.408 24.375 58.5 23.283 58.5 21.9375C58.5 20.592 57.408 19.5 56.0625 19.5Z" fill="#90A4AE"/>
<path d="M41.4375 29.25H21.9375C20.592 29.25 19.5 30.342 19.5 31.6875C19.5 33.033 20.592 34.125 21.9375 34.125H41.4375C42.783 34.125 43.875 33.033 43.875 31.6875C43.875 30.342 42.783 29.25 41.4375 29.25Z" fill="#90A4AE"/>
<path d="M40.443 53.1521C40.014 53.469 39.507 53.625 39 53.625C38.493 53.625 37.986 53.469 37.557 53.1521L0 29.25V73.125C0 75.816 2.184 78 4.875 78H73.125C75.816 78 78 75.816 78 73.125V29.25L40.443 53.1521Z" fill="#1E88E5"/>
<path d="M73.125 78H4.875C2.14013 78 0 75.8599 0 73.125C0 72.3499 0.3705 71.6186 0.9945 71.1604L37.557 46.7854C37.986 46.4685 38.493 46.3125 39 46.3125C39.507 46.3125 40.014 46.4685 40.443 46.7854L77.0055 71.1604C77.6295 71.6186 78 72.3499 78 73.125C78 75.8599 75.8599 78 73.125 78Z" fill="#2196F3"/>
</svg>
