<svg width="82" height="78" viewBox="0 0 82 78" fill="none" xmlns="http://www.w3.org/2000/svg">
<g clip-path="url(#clip0)">
<path d="M31.6367 11.6424L21.4626 1.95309C18.7755 -0.65168 13.9767 -0.65168 11.2417 1.95309L9.60964 3.553C9.55157 3.6083 7.83472 5.21842 7.83472 5.28971C6.97061 6.15807 7.01812 7.57487 7.93021 8.39752L24.8702 24.5305C25.7342 25.4455 27.3651 25.4449 28.2297 24.5305L31.6367 21.2858C34.3739 18.7688 34.5408 14.3124 31.6367 11.6424Z" fill="#1689FC"/>
<path d="M79.776 57.5826L69.6025 47.8935C66.9155 45.2887 62.1647 45.2887 59.477 47.8935L57.7976 49.539L56.07 51.1384C55.1104 52.0068 55.1104 53.4693 56.07 54.3377L73.058 70.5164C73.8873 71.3957 75.4669 71.4664 76.465 70.5164L78.0965 68.9169L79.7759 67.2716C82.6078 64.6211 82.6078 60.2335 79.776 57.5826Z" fill="#136EF1"/>
<path d="M78.0965 68.9172L76.465 70.5166C63.3644 81.7597 48.0559 79.0631 39.4183 70.7909L7.5943 40.3901C-2.53169 30.7923 -2.53169 15.1162 7.5943 5.47299C7.64229 5.47299 8.02603 5.10722 8.02603 5.06182L9.60948 3.55347L29.9083 22.8857L28.9487 23.8456L28.2294 24.531C26.6934 26.1308 25.4457 27.1361 25.4457 29.3755C25.4457 30.7923 26.0216 32.0722 27.0297 33.0775L35.0434 40.71L47.0956 52.2811C49.1594 54.2464 52.7585 54.2464 54.8222 52.2811L56.0699 51.1386L57.7975 49.5391L78.0965 68.9172Z" fill="#17ACE8"/>
<path d="M57.7976 49.5391L78.0965 68.9172L76.465 70.5167C63.3644 81.7598 48.0559 79.0631 39.4183 70.7909L21.5105 53.6439C21.5105 53.5985 21.5105 53.5985 21.5105 53.5985L35.0435 40.7102L47.0958 52.2813C49.1596 54.2465 52.7587 54.2465 54.8223 52.2813L56.07 51.1387L57.7976 49.5391Z" fill="#1689FC"/>
</g>
<defs>
<clipPath id="clip0">
<rect width="81.9" height="78" fill="white"/>
</clipPath>
</defs>
</svg>
