<svg width="120" height="120" viewBox="0 0 120 120" fill="none" xmlns="http://www.w3.org/2000/svg">
<g clip-path="url(#clip0)">
<path d="M80.0003 63.2532C80.195 63.332 80.3952 63.3692 80.5923 63.3692C81.2173 63.3692 81.8094 62.9957 82.0578 62.3804L82.0883 62.306C82.4155 61.4972 82.0248 60.5756 81.2155 60.2485C80.4062 59.9213 79.4852 60.3119 79.158 61.1213L79.1275 61.1957C78.8004 62.0051 79.1916 62.9261 80.0003 63.2532Z" fill="#EC7063"/>
<path d="M100.419 70.1423H99.0434V56.9307C99.0434 53.6702 97.8318 50.5507 95.6328 48.1471C94.243 46.6274 92.5346 45.475 90.6493 44.7591C93.3061 42.1517 94.9565 38.5225 94.9565 34.5144C94.9565 26.5975 88.5161 20.1565 80.5986 20.1565C72.6818 20.1565 66.2408 26.5975 66.2408 34.515C66.2408 39.0139 68.3208 43.0361 71.5697 45.6703C71.1272 46.064 70.7049 46.4394 70.3002 46.7995C70.2788 46.8184 70.2581 46.8385 70.2373 46.8587L60.5303 56.5053L50.8227 46.8587C50.802 46.8385 50.7812 46.8184 50.7592 46.7995C50.3552 46.4394 49.9328 46.064 49.4903 45.6703C52.7392 43.0361 54.8193 39.0139 54.8193 34.515C54.8193 26.5975 48.3783 20.1565 40.4614 20.1565C32.544 20.1565 26.1036 26.5975 26.1036 34.515C26.1036 38.5225 27.7539 42.1517 30.4114 44.7591C28.5254 45.475 26.8171 46.628 25.4273 48.1471C23.2282 50.5507 22.0173 53.6702 22.0173 56.9307C22.0173 57.8029 22.7247 58.5109 23.5975 58.5109C24.4703 58.5109 25.1777 57.8029 25.1777 56.9307C25.1777 51.9575 28.8031 47.831 33.678 47.1669C35.2594 48.0177 37.0172 48.5811 38.8812 48.7862V61.714C38.8812 62.5868 39.5886 63.2942 40.4614 63.2942C41.3342 63.2942 42.0416 62.5868 42.0416 61.714V48.7862C43.7012 48.6037 45.2771 48.1368 46.7181 47.4361C47.3974 48.0391 48.0316 48.6018 48.6255 49.131L58.2885 58.7336L56.7498 60.2626C56.1859 60.8259 55.7623 61.493 55.4968 62.22L50.8264 57.5496C50.3741 57.0973 49.6942 56.9624 49.104 57.2072C48.5138 57.4519 48.1286 58.0281 48.1286 58.6671V70.1423H32.7942V59.4105C32.7942 58.5377 32.0868 57.8303 31.214 57.8303C30.3412 57.8303 29.6338 58.5377 29.6338 59.4105V69.1072C29.6338 70.3352 28.6341 71.3349 27.4054 71.3349C26.2568 71.3349 25.3034 70.4749 25.1893 69.3342C25.102 68.4657 24.3262 67.8334 23.4583 67.92C22.5904 68.0073 21.9568 68.7824 22.0441 69.6504C22.3218 72.4128 24.6271 74.4953 27.406 74.4953C28.2001 74.4953 28.9545 74.3226 29.6338 74.0131V98.1982C29.6338 99.071 30.3412 99.7784 31.214 99.7784H49.6911C50.5639 99.7784 51.2719 99.071 51.2719 98.1982V71.9581C51.2829 71.8812 51.289 71.8025 51.289 71.7225V62.4818L56.69 67.8828C57.6873 68.8795 58.9813 69.4038 60.2899 69.4544C60.3796 69.4587 60.4699 69.4612 60.5602 69.4612C61.9994 69.4612 63.3526 68.9009 64.3707 67.8828L69.7716 62.4818V71.7225C69.7716 71.8025 69.7777 71.8806 69.7887 71.9575V98.1976C69.7887 99.0704 70.4961 99.7778 71.3689 99.7778H89.8466C90.7194 99.7778 91.4268 99.0704 91.4268 98.1976V86.6858H100.419C101.292 86.6858 101.999 85.9784 101.999 85.1056V71.7225C101.999 70.8497 101.292 70.1423 100.419 70.1423ZM29.264 34.515C29.264 28.3407 34.2871 23.3175 40.4614 23.3175C46.6357 23.3175 51.6589 28.3407 51.6589 34.515C51.6589 40.6887 46.6357 45.7118 40.4614 45.7118C34.2871 45.7118 29.264 40.6887 29.264 34.515ZM48.1109 96.6174H42.0331V80.7081C42.0331 79.8353 41.3257 79.1279 40.4529 79.1279C39.5801 79.1279 38.8727 79.8353 38.8727 80.7081V96.6174H32.7942V73.3027H48.1109V96.6174ZM69.4018 34.515C69.4018 28.3407 74.4243 23.3175 80.5986 23.3175C86.7729 23.3175 91.7961 28.3407 91.7961 34.515C91.7961 40.6887 86.7729 45.7118 80.5986 45.7118C74.4243 45.7118 69.4018 40.6887 69.4018 34.515ZM62.3632 65.4206C62.2607 65.4835 62.1642 65.5598 62.0757 65.6483C61.6399 66.0841 61.0662 66.3014 60.4937 66.2995C59.9236 66.2831 59.3896 66.0536 58.9843 65.6477C58.5638 65.2272 58.3319 64.6675 58.3319 64.0724C58.3319 63.4773 58.5638 62.9176 58.9813 62.5007L72.4346 49.131C73.0291 48.6018 73.6626 48.0391 74.3419 47.4361C75.7836 48.1368 77.3589 48.6037 79.0184 48.7862V55.4976C79.0184 56.3704 79.7258 57.0778 80.5986 57.0778C81.4714 57.0778 82.1794 56.3704 82.1794 55.4976V48.7862C84.0434 48.5811 85.8012 48.0177 87.382 47.1669C92.2569 47.831 95.8824 51.9575 95.8824 56.9301V70.1423H91.4268V59.4099C91.4268 58.5371 90.7188 57.8297 89.846 57.8297C88.9732 57.8297 88.2658 58.5371 88.2658 59.4099V70.1423H72.9314V58.6671C72.9314 58.0281 72.5469 57.4513 71.9561 57.2072C71.3659 56.9624 70.6859 57.0979 70.2343 57.5496L62.3632 65.4206ZM72.9491 73.3027H79.0123V85.1062C79.0123 85.1801 79.0172 85.2533 79.0276 85.3248V96.6174H72.9491V73.3027ZM88.2658 96.6174H82.188V86.6864H88.2658V96.6174ZM98.8389 83.5254H82.188V80.7081C82.188 80.6336 82.1825 80.561 82.1727 80.4896V73.3027H98.8389V83.5254Z" fill="#EC7063"/>
<path d="M94.2202 76.834H86.7929C85.9201 76.834 85.2127 77.5414 85.2127 78.4142C85.2127 79.287 85.9201 79.9944 86.7929 79.9944H94.2202C95.093 79.9944 95.8004 79.287 95.8004 78.4142C95.8004 77.5414 95.093 76.834 94.2202 76.834Z" fill="#EC7063"/>
<path d="M22.9881 64.743C23.1828 64.8217 23.383 64.8583 23.5802 64.8583C24.2052 64.8583 24.7972 64.4854 25.0456 63.8702L25.0761 63.7957C25.4033 62.9864 25.0127 62.0654 24.2033 61.7382C23.394 61.4111 22.473 61.8017 22.1458 62.6104L22.1153 62.6855C21.7882 63.4948 22.1794 64.4158 22.9881 64.743Z" fill="#EC7063"/>
</g>
<rect opacity="0.5" x="1.5" y="1.5" width="117" height="117" rx="28.5" stroke="white" stroke-width="3"/>
<defs>
<clipPath id="clip0">
<rect x="22" y="20" width="80" height="80" fill="white"/>
</clipPath>
</defs>
</svg>
