<svg width="120" height="120" viewBox="0 0 120 120" fill="none" xmlns="http://www.w3.org/2000/svg">
<path d="M28.75 80.75H58.75V83.25H28.75V80.75Z" fill="#EC7063"/>
<path d="M28.75 85.75H56.25V88.25H28.75V85.75Z" fill="#EC7063"/>
<path d="M36.25 75.75H58.75V78.25H36.25V75.75Z" fill="#EC7063"/>
<path d="M31.25 75.75H33.75V78.25H31.25V75.75Z" fill="#EC7063"/>
<path d="M22.5 50.75V98.25C22.5 98.5815 22.6317 98.8995 22.8661 99.1339C23.1005 99.3683 23.4185 99.5 23.75 99.5H63.75C64.0815 99.5 64.3995 99.3683 64.6339 99.1339C64.8683 98.8995 65 98.5815 65 98.25V50.75C65 50.4185 64.8683 50.1005 64.6339 49.8661C64.3995 49.6317 64.0815 49.5 63.75 49.5H46.7125L47.0636 49.1991C47.2005 49.0817 47.3104 48.9361 47.3857 48.7723C47.461 48.6085 47.5 48.4303 47.5 48.25V44.5C47.5 44.1685 47.3683 43.8505 47.1339 43.6161C46.8995 43.3817 46.5815 43.25 46.25 43.25H42.5V37H51.25V34.5H41.25C40.9185 34.5 40.6005 34.6317 40.3661 34.8661C40.1317 35.1005 40 35.4185 40 35.75V44.5C40 44.8315 40.1317 45.1495 40.3661 45.3839C40.6005 45.6183 40.9185 45.75 41.25 45.75H45V47.675L37.5 54.1038L30 47.675V45.75H33.75C34.0815 45.75 34.3995 45.6183 34.6339 45.3839C34.8683 45.1495 35 44.8315 35 44.5V32C35.0008 31.3372 35.2644 30.7018 35.7331 30.2331C36.2018 29.7644 36.8372 29.5008 37.5 29.5H51.25V27H37.5C36.1744 27.0015 34.9035 27.5288 33.9661 28.4661C33.0288 29.4035 32.5015 30.6744 32.5 32V43.25H28.75C28.4185 43.25 28.1005 43.3817 27.8661 43.6161C27.6317 43.8505 27.5 44.1685 27.5 44.5V48.25C27.5 48.4303 27.539 48.6085 27.6143 48.7723C27.6896 48.9361 27.7995 49.0817 27.9364 49.1991L28.2875 49.5H23.75C23.4185 49.5 23.1005 49.6317 22.8661 49.8661C22.6317 50.1005 22.5 50.4185 22.5 50.75ZM25 52H31.2042L36.6864 56.6991C36.913 56.8933 37.2016 57.0001 37.5 57.0001C37.7984 57.0001 38.087 56.8933 38.3136 56.6991L43.7958 52H62.5V97H25V52Z" fill="#EC7063"/>
<path d="M96.25 73.25V25.75C96.25 25.4185 96.1183 25.1005 95.8839 24.8661C95.6495 24.6317 95.3315 24.5 95 24.5H55C54.6685 24.5 54.3505 24.6317 54.1161 24.8661C53.8817 25.1005 53.75 25.4185 53.75 25.75V47H56.25V27H93.75V72H87.5458L82.0636 67.3009C81.837 67.1067 81.5484 66.9999 81.25 66.9999C80.9516 66.9999 80.663 67.1067 80.4364 67.3009L74.9542 72H67.5V74.5H72.0375L71.6864 74.8009C71.5495 74.9183 71.4396 75.0639 71.3643 75.2277C71.289 75.3915 71.25 75.5697 71.25 75.75V79.5C71.25 79.8315 71.3817 80.1495 71.6161 80.3839C71.8505 80.6183 72.1685 80.75 72.5 80.75H76.25V87H67.5V89.5H77.5C77.8315 89.5 78.1495 89.3683 78.3839 89.1339C78.6183 88.8995 78.75 88.5815 78.75 88.25V79.5C78.75 79.1685 78.6183 78.8505 78.3839 78.6161C78.1495 78.3817 77.8315 78.25 77.5 78.25H73.75V76.325L81.25 69.8963L88.75 76.325V78.25H85C84.6685 78.25 84.3505 78.3817 84.1161 78.6161C83.8817 78.8505 83.75 79.1685 83.75 79.5V92C83.7492 92.6628 83.4856 93.2982 83.0169 93.7669C82.5482 94.2356 81.9128 94.4992 81.25 94.5H67.5V97H81.25C82.5756 96.9985 83.8465 96.4712 84.7839 95.5339C85.7212 94.5965 86.2485 93.3256 86.25 92V80.75H90C90.3315 80.75 90.6495 80.6183 90.8839 80.3839C91.1183 80.1495 91.25 79.8315 91.25 79.5V75.75C91.25 75.5697 91.211 75.3915 91.1357 75.2277C91.0604 75.0639 90.9505 74.9183 90.8136 74.8009L90.4625 74.5H95C95.3315 74.5 95.6495 74.3683 95.8839 74.1339C96.1183 73.8995 96.25 73.5815 96.25 73.25Z" fill="#EC7063"/>
<path d="M57.5 59.5H30C29.6685 59.5 29.3505 59.6317 29.1161 59.8661C28.8817 60.1005 28.75 60.4185 28.75 60.75V70.75C28.75 71.0815 28.8817 71.3995 29.1161 71.6339C29.3505 71.8683 29.6685 72 30 72H57.5C57.8315 72 58.1495 71.8683 58.3839 71.6339C58.6183 71.3995 58.75 71.0815 58.75 70.75V60.75C58.75 60.4185 58.6183 60.1005 58.3839 59.8661C58.1495 59.6317 57.8315 59.5 57.5 59.5ZM56.25 69.5H31.25V62H56.25V69.5Z" fill="#EC7063"/>
<path d="M67.5 54.5H90V57H67.5V54.5Z" fill="#EC7063"/>
<path d="M67.5 59.5H87.5V62H67.5V59.5Z" fill="#EC7063"/>
<path d="M75 49.5H90V52H75V49.5Z" fill="#EC7063"/>
<path d="M70 49.5H72.5V52H70V49.5Z" fill="#EC7063"/>
<path d="M90 44.5V34.5C90 34.1685 89.8683 33.8505 89.6339 33.6161C89.3995 33.3817 89.0815 33.25 88.75 33.25H61.25C60.9185 33.25 60.6005 33.3817 60.3661 33.6161C60.1317 33.8505 60 34.1685 60 34.5V44.5C60 44.8315 60.1317 45.1495 60.3661 45.3839C60.6005 45.6183 60.9185 45.75 61.25 45.75H88.75C89.0815 45.75 89.3995 45.6183 89.6339 45.3839C89.8683 45.1495 90 44.8315 90 44.5ZM87.5 43.25H62.5V35.75H87.5V43.25Z" fill="#EC7063"/>
<rect opacity="0.5" x="1.5" y="1.5" width="117" height="117" rx="28.5" stroke="white" stroke-width="3"/>
</svg>
