<svg id="_x33_0" enable-background="new 0 0 64 64" height="512" viewBox="0 0 64 64" width="512" xmlns="http://www.w3.org/2000/svg"><g><g><g><path d="m28 41c0 .95.1 1.87.29 2.77-.14-.03-.27-.05-.41-.07l-2.01-.29-2.87-.41-.93-3.71c2.04-.99 3.53-2.95 3.85-5.29h.01 1.07c.83 0 1.58-.34 2.12-.88s.88-1.29.88-2.12c0-.86-.36-1.63-.94-2.18l.5-1.5c.29-.87.44-1.79.44-2.72 0-.09 0-.18-.01-.26h.01l.1.1c.79.79 1.85 1.19 2.93 1.16.49-.01.99-.11 1.45-.31.02 0 .03-.01.05-.02 1.5-.62 2.47-2.07 2.47-3.69v-1.58h2 4 2v1.58c0 1.62.97 3.07 2.47 3.69.02.01.03.02.05.02.47.2.98.31 1.48.32 1.07.02 2.12-.39 2.9-1.17l1.12-1.12 5.66 5.66-1.12 1.12c-1.15 1.15-1.48 2.88-.85 4.38 0 .02.01.03.02.05.62 1.5 2.07 2.47 3.69 2.47h1.58v8h-1.58c-1.62 0-3.07.97-3.69 2.47-.01.02-.02.03-.02.05-.63 1.5-.3 3.23.85 4.38l1.12 1.12-5.66 5.66-1.12-1.12c-1.15-1.15-2.88-1.48-4.38-.85-.02 0-.03.01-.05.02-1.5.62-2.47 2.07-2.47 3.69v1.58h-9v-8.94c0-.02 0-.04 0-.06 1.54.65 3.23 1 5 1 7.18 0 13-5.82 13-13s-5.82-13-13-13-13 5.82-13 13z" fill="#ffc729"/></g><g><path d="m32 41c0 4.97 4.03 9 9 9s9-4.03 9-9-4.03-9-9-9-9 4.03-9 9zm-.21 4.19c-.86-.57-1.8-.99-2.79-1.26-.23-.06-.47-.12-.71-.16-.19-.9-.29-1.82-.29-2.77 0-7.18 5.82-13 13-13s13 5.82 13 13-5.82 13-13 13c-1.77 0-3.46-.35-5-1-.01-1.56-.41-3.07-1.12-4.4-.72-1.35-1.78-2.53-3.09-3.41z" fill="#fcd770"/></g><g><path d="m11 55 4 7h-13v-8.94c0-3.16 1.58-6.11 4.21-7.87.86-.57 1.8-.99 2.79-1.26v7.07l6 1z" fill="#b4dd7f"/></g><g><path d="m36 53.06v8.94h-13l4-7-4-3 6-1v-7.07c.99.27 1.93.69 2.79 1.26 1.31.88 2.37 2.06 3.09 3.41.71 1.33 1.11 2.84 1.12 4.4z" fill="#b4dd7f"/></g><g><path d="m14.16 48.9 1.16 3.15-.32-.05-6-1v-7.07c.37-.1.74-.18 1.12-.23l2.01-.29z" fill="#a0d468"/></g><g><path d="m15.32 52.05 3.68 9.95h-4l-4-7 4-3z" fill="#a0d468"/></g><g><path d="m27 55-4 7h-4l3.68-9.95.32-.05z" fill="#a0d468"/></g><g><path d="m29 43.93v7.07l-6 1-.32.05 1.16-3.15 2.03-5.49 2.01.29c.14.02.27.04.41.07.24.04.48.1.71.16z" fill="#a0d468"/></g><g><path d="m23.84 48.9-1.16 3.15-3.68 9.95-3.68-9.95-1.16-3.15 4.84-2.9z" fill="#ff826e"/></g><g><path d="m19 46-4.84 2.9-2.03-5.49 2.87-.41z" fill="#fc6e51"/></g><g><path d="m25.87 43.41-2.03 5.49-4.84-2.9 4-3z" fill="#fc6e51"/></g><g><path d="m61 16-6 4v-4-4z" fill="#ff826e"/></g><g><path d="m57 6-6 4v-4-4z" fill="#ff826e"/></g><g><path d="m31 6v4l-6-4 6-4z" fill="#ff826e"/></g><g><path d="m13 15.23v.77l-6-4 6-4v4z" fill="#ff826e"/></g><g><path d="m11 28c-1.66 0-3 1.34-3 3l-1.2-1.8c-.52-.78-.8-1.7-.8-2.65 0-1.59.8-3.08 2.13-3.97l.87-.58-1.17-1.17c-.53-.53-.83-1.25-.83-2 0-.78.32-1.49.83-2s1.22-.83 2-.83h3.17 8.4c4.66 0 8.46 3.71 8.59 8.34.01.08.01.17.01.26 0 .93-.15 1.85-.44 2.72l-.5 1.5c-.53-.5-1.26-.82-2.06-.82h-1-1.39c-1.13 0-2.22-.28-3.18-.8-.97-.52-1.81-1.26-2.43-2.2-1.25 1.87-3.35 3-5.61 3h-1.39z" fill="#656d78"/></g><g><path d="m22.07 39.29.93 3.71-4 3-4-3 .93-3.71c.92.46 1.96.71 3.07.71s2.15-.25 3.07-.71z" fill="#f0d0b4"/></g><g><path d="m27 28c.8 0 1.53.32 2.06.82.58.55.94 1.32.94 2.18 0 .83-.34 1.58-.88 2.12s-1.29.88-2.12.88h-1.07-.01c.06-.33.08-.66.08-1v-5z" fill="#f0d0b4"/></g><g><path d="m26 28v5c0 .34-.02.67-.08 1-.32 2.34-1.81 4.3-3.85 5.29-.92.46-1.96.71-3.07.71s-2.15-.25-3.07-.71c-.7-.34-1.33-.79-1.88-1.34-1.05-1.05-1.76-2.41-1.97-3.95-.06-.33-.08-.66-.08-1v-5h1.39c2.26 0 4.36-1.13 5.61-3 .62.94 1.46 1.68 2.43 2.2.96.52 2.05.8 3.18.8z" fill="#f0d0b4"/></g><g><path d="m12 33c0 .34.02.67.08 1h-.01-1.07c-.83 0-1.58-.34-2.12-.88s-.88-1.29-.88-2.12c0-1.66 1.34-3 3-3h1z" fill="#f0d0b4"/></g></g><g><path d="m60.423 36c-1.219 0-2.308-.728-2.795-1.904-.475-1.135-.222-2.427.643-3.292l1.823-1.823-7.074-7.074-1.823 1.823c-.342.343-.753.585-1.196.727v-6.457c0-.552.448-1 1-1h3v4.868l8.802-5.868-8.803-5.868v4.868h-3c-1.654 0-3 1.346-3 3v6.4c-.049-.018-.099-.029-.147-.05-1.125-.465-1.853-1.554-1.853-2.773v-2.577h-2v-2h-2v2h-2v-2h-2v2h-2v2.577c0 1.219-.728 2.308-1.904 2.795-.031.013-.064.02-.096.032v-10.404c0-1.302-.839-2.402-2-2.816v-4.184h5c.552 0 1 .448 1 1v3h2v-3c0-1.654-1.346-3-3-3h-5v-4.868l-8.803 5.868 7.5 5h-16.697v-4.868l-8.803 5.868 4.517 3.011c-2.056.062-3.714 1.746-3.714 3.817 0 1.022.398 1.984 1.121 2.707l.312.312c-1.527 1.082-2.433 2.829-2.433 4.708 0 1.143.335 2.25.97 3.202l1.066 1.6c.184 2.037 1.88 3.643 3.964 3.643h.263c.519 2.007 1.796 3.708 3.511 4.78l-.582 2.325-4.209.601c-1.537.221-3.032.791-4.324 1.652-2.917 1.945-4.659 5.2-4.659 8.706v9.936h45v-2.577c0-1.219.728-2.308 1.904-2.795 1.135-.475 2.427-.223 3.292.643l1.823 1.823 7.074-7.074-1.823-1.823c-.864-.865-1.117-2.157-.621-3.344.466-1.125 1.555-1.853 2.774-1.853h2.577v-10zm-4.423-22.132 3.197 2.132-3.197 2.132zm-26-5.736-3.197-2.132 3.197-2.132zm1 4.868c.552 0 1 .448 1 1v10.458c-.377-.122-.728-.323-1.037-.592-.379-4.95-4.52-8.866-9.567-8.866h-7.396v-2zm5.952 39.285c-.061-.813-.214-1.605-.455-2.369 1.355.688 2.882 1.084 4.503 1.084 5.514 0 10-4.486 10-10s-4.486-10-10-10-10 4.486-10 10c0 .976.147 1.918.409 2.811-.709-.372-1.46-.667-2.236-.87-.103-.64-.173-1.287-.173-1.941 0-6.617 5.383-12 12-12s12 5.383 12 12-5.383 12-12 12c-1.396 0-2.752-.25-4.048-.715zm-13.684-8.237 1.234.176-1.183 3.201-2.53-1.518zm4.465.639c.09.013.177.038.267.054v5.412l-3.788.632 2.317-6.27zm-8.733 2.479 3.614 2.169-3.614 9.779-3.614-9.779zm-1.436 13.834h-1.984l-3.274-5.729 2.458-1.844zm5.671-7.574 2.458 1.844-3.273 5.73h-1.984zm5.072 1.303-2.837-2.127 4.53-.754v-6.49c.427.191.843.406 1.231.664 2.36 1.574 3.769 4.206 3.769 7.042v7.936h-10.277zm4.762-12.729h6.931v6.931c-3.612-.454-6.477-3.319-6.931-6.931zm8.931 0h6.931c-.453 3.612-3.319 6.477-6.931 6.931zm0-2v-6.931c3.612.453 6.477 3.319 6.931 6.931zm-2 0h-6.931c.453-3.612 3.319-6.477 6.931-6.931zm-13 1c0 .527.033 1.053.091 1.574l-3.284-.469-.582-2.325c1.715-1.073 2.991-2.773 3.511-4.78h.264c.537 0 1.048-.11 1.516-.302-.962 1.897-1.516 4.034-1.516 6.302zm0-12c1.103 0 2 .897 2 2s-.897 2-2 2zm-15-19.132v4.264l-3.197-2.132zm-3.319 13.547 1.889-1.26-2.034-2.034c-.341-.34-.536-.811-.536-1.293 0-1.008.82-1.828 1.828-1.828h11.568c4.193 0 7.604 3.411 7.604 7.604 0 .818-.131 1.627-.391 2.404l-.098.293c-.466-.191-.976-.301-1.511-.301h-1-1.395c-1.923 0-3.707-.955-4.773-2.555l-.832-1.248-.832 1.248c-1.066 1.6-2.851 2.555-4.773 2.555h-1.395-1c-1.37 0-2.579.693-3.3 1.746l-.066-.099c-.415-.622-.634-1.345-.634-2.092 0-1.265.628-2.439 1.681-3.14zm.319 7.585c0-1.103.897-2 2-2v4c-1.103 0-2-.897-2-2zm4 2v-4h.395c2.143 0 4.159-.88 5.605-2.403 1.446 1.523 3.463 2.403 5.605 2.403h.395v4c0 3.309-2.691 6-6 6s-6-2.691-6-6zm6 8c.828 0 1.628-.127 2.379-.361l.489 1.96-2.868 2.151-2.869-2.152.489-1.96c.752.235 1.552.362 2.38.362zm-4.268 3.048 2.479 1.859-2.53 1.518-1.183-3.201zm-3.261.466 2.317 6.27-3.788-.632v-5.412c.089-.016.177-.041.267-.054zm-8.471 8.55c0-2.837 1.409-5.469 3.769-7.042.388-.258.804-.473 1.231-.664v6.49l4.531.754-2.837 2.127 3.583 6.271h-10.277zm58-9.064h-.577c-2.03 0-3.845 1.212-4.641 3.133-.788 1.887-.366 4.037 1.074 5.478l.409.409-4.246 4.246-.409-.409c-1.439-1.439-3.587-1.862-5.523-1.055-1.875.776-3.087 2.591-3.087 4.621v.577h-7v-6.584c1.292.385 2.631.584 4 .584 7.72 0 14-6.28 14-14s-6.28-14-14-14c-3.929 0-7.48 1.633-10.025 4.248.005-.083.025-.163.025-.248 0-.901-.31-1.724-.814-2.393l.322-.967c.162-.486.283-.983.366-1.485 1.244.56 2.691.608 4.04.044 1.874-.777 3.086-2.592 3.086-4.622v-.577h6v.577c0 2.03 1.212 3.845 3.133 4.641 1.889.788 4.038.368 5.478-1.074l.409-.409 4.246 4.246-.409.409c-1.44 1.44-1.862 3.591-1.055 5.523.776 1.875 2.591 3.087 4.621 3.087h.577z"/><path d="m44 8c0-.552.448-1 1-1h5v4.868l8.803-5.868-8.803-5.868v4.868h-5c-1.654 0-3 1.346-3 3v3h2zm8-4.132 3.197 2.132-3.197 2.132z"/><path d="m42 13h2v2h-2z"/><path d="m38 13h2v2h-2z"/></g></g></svg>