<svg width="30" height="30" viewBox="0 0 30 30" fill="none" xmlns="http://www.w3.org/2000/svg">
<path d="M21.9828 1.29297C19.0879 1.29322 16.4181 2.8553 15 5.37913C13.5819 2.8553 10.9121 1.29322 8.01724 1.29297C3.58962 1.29297 0 5.39983 0 9.82745C0 20.9481 15 28.7068 15 28.7068C15 28.7068 30 20.9481 30 9.82745C30 5.39983 26.4104 1.29297 21.9828 1.29297Z" fill="#FF6243"/>
<path d="M2.06896 9.82745C2.06896 5.73094 5.14336 1.91629 9.10955 1.36748C8.74763 1.31772 8.38268 1.29272 8.01723 1.29297C3.58962 1.29297 0 5.39984 0 9.82745C0 20.9481 15 28.7068 15 28.7068C15 28.7068 15.3879 28.5055 16.0345 28.1254C12.6456 26.1324 2.06896 19.1668 2.06896 9.82745Z" fill="#FF5023"/>
</svg>
