<svg width="25" height="23" viewBox="0 0 25 23" fill="none" xmlns="http://www.w3.org/2000/svg">
<path d="M24.1698 13.5352L17.0403 21.787C15.9958 22.996 14.3043 22.996 13.2599 21.787C12.2154 20.5802 12.2154 18.6183 13.2599 17.4115L18.4983 11.3463L13.2599 5.28327C12.2154 4.07437 12.2154 2.11661 13.2599 0.907709C13.7803 0.301195 14.4647 0 15.1492 0C15.8336 0 16.518 0.301193 17.0403 0.905643L24.1698 9.15753C25.2125 10.3664 25.2125 12.3263 24.1698 13.5352Z" fill="#4EBD6F"/>
<path d="M11.6933 13.5352L4.56377 21.787C3.5193 22.996 1.82782 22.996 0.783353 21.787C-0.261118 20.5802 -0.261118 18.6183 0.783353 17.4115L6.02175 11.3463L0.783353 5.28327C-0.261118 4.07437 -0.261118 2.11661 0.783353 0.907709C1.30381 0.301195 1.98824 0 2.67267 0C3.3571 0 4.04153 0.301193 4.56377 0.905643L11.6933 9.15753C12.736 10.3664 12.736 12.3263 11.6933 13.5352Z" fill="#4EBD6F"/>
</svg>
