<svg id="Layer_1" enable-background="new 0 0 64 64" height="512" viewBox="0 0 64 64" width="512" xmlns="http://www.w3.org/2000/svg"><g><g><path d="m48.5 10h4v20h-4z" fill="#fbbe18"/></g><g><path d="m50.5 10h2v20h-2z" fill="#f68820"/></g><g><path d="m53.5 24h-6c-.552 0-1 .448-1 1 0 .552.448 1 1 1h6c.552 0 1-.448 1-1 0-.552-.448-1-1-1z" fill="#dbdee3"/></g><g><path d="m53.5 28h-6c-.552 0-1 .448-1 1v1h8v-1c0-.552-.448-1-1-1z" fill="#dbdee3"/></g><g><path d="m55 30h-35.5v32h16.5c.828 0 1.5-.672 1.5-1.5v-4.5h15c2.209 0 4-1.791 4-4v-20.5c0-.828-.672-1.5-1.5-1.5z" fill="#eec78e"/></g><g><path d="m36 62h-16.5c0-3.314 2.686-6 6-6h12v4.5c0 .828-.672 1.5-1.5 1.5z" fill="#db9e68"/></g><g><path d="m17 30c-.828 0-1.5.672-1.5 1.5v16.5c0 2.209 1.791 4 4 4h10c2.209 0 4-1.791 4-4v-8h3c.828 0 1.5-.672 1.5-1.5v-8.5z" fill="#55525b"/></g><g><path d="m33.5 34c-3.314 0-6 2.686-6 6s2.686 6 6 6z" fill="#db9e68"/></g><g><circle cx="43.5" cy="34" fill="#55525b" r="2"/></g><g><circle cx="52.5" cy="34" fill="#55525b" r="2"/></g><g><path d="m50 48c-1.381 0-2.5-1.119-2.5-2.5v-9.5c2.761 0 5 2.239 5 5v4.5c0 1.381-1.119 2.5-2.5 2.5z" fill="#db9e68"/></g><g><path d="m47.5 52h3c1.105 0 2-.895 2-2h-7c0 1.105.895 2 2 2z" fill="#55525b"/></g><g><g><path d="m33.5 2h-19c-3.866 0-7 3.134-7 7 0 .552.448 1 1 1 .556 0 1.007-.454 1-1.012-.007-.548.452-.988 1-.988h4c.552 0 1 .448 1 1v1c0 1.104.895 2 2 2h16c1.105 0 2-.896 2-2v-6c0-1.105-.895-2-2-2z" fill="#b3b4b6"/></g><g><path d="m21.5 12h8v18h-8z" fill="#fbbe18"/></g><g><path d="m25.5 12h4v18h-4z" fill="#f68820"/></g><g><path d="m38.5 2h-3.5c-2.761 0-5 2.239-5 5s2.239 5 5 5h3.5c2.761 0 5-2.239 5-5s-2.239-5-5-5z" fill="#dbdee3"/></g><g><circle cx="38.5" cy="7" fill="#b3b4b6" r="5"/></g><g><path d="m8.5 10h2.5c.552 0 1-.448 1-1 0-.552.448-1 1-1h-3.5c-.552 0-1 .448-1 1z" fill="#b3b4b6"/></g><g><path d="m14 9c0 .552.448 1 1 1h1.5c.552 0 1-.448 1-1 0-.552.448-1 1-1h-3.5c-.552 0-1 .448-1 1z" fill="#b3b4b6"/></g><g><path d="m25.5 2h-11c-3.866 0-7 3.134-7 7 0 .552.448 1 1 1 .556 0 1.007-.454 1-1.012-.007-.548.452-.988 1-.988h4c.552 0 1 .448 1 1v1c0 1.105.895 2 2 2h8c1.105 0 2-.895 2-2v-6c0-1.105-.895-2-2-2z" fill="#dbdee3"/></g></g><g><path d="m48.386 2.342-1.788 5.365c-.06.18-.013.378.121.512l1.781 1.781h4l1.781-1.781c.134-.134.181-.332.121-.512l-1.788-5.365c-.068-.204-.259-.342-.474-.342h-3.28c-.215 0-.406.138-.474.342z" fill="#fbbe18"/></g><g><path d="m47.5 26h6v2h-6z" fill="#b3b4b6"/></g><g><path d="m50.5 24c0 .552-.448 1-1 1h-3c0 .552.448 1 1 1h6c.552 0 1-.448 1-1 0-.552-.448-1-1-1z" fill="#b3b4b6"/></g><g><path d="m45.5 19c0-1.731-.882-3.253-2.219-4.15-.086-.058-.18-.081-.272-.081v-.003h-3v.003c-.262 0-.509.21-.509.505v3.592c0 .179-.095.344-.25.433l-.25.144-.25-.144c-.155-.089-.25-.254-.25-.433v-3.597c0-.293-.245-.506-.506-.506v-.001h-3v.001c-.089 0-.18.024-.264.079-1.568 1.045-2.514 2.949-2.154 5.043.283 1.645 1.419 3.039 2.924 3.695v6.42h7v-6.424c1.764-.773 3-2.527 3-4.576z" fill="#5c76b2"/></g><g><path d="m42.5 19c0-1.731-.882-3.253-2.219-4.15-.331-.222-.781.025-.781.424v3.592c0 .179-.095.344-.25.433l-1.5.866c-.155.089-.345.089-.5 0l-1.5-.866c-.155-.089-.25-.254-.25-.433v-3.597c0-.394-.442-.645-.769-.427-1.568 1.045-2.514 2.949-2.154 5.043.283 1.645 1.419 3.039 2.924 3.695v6.42h4v-6.424c1.763-.773 2.999-2.527 2.999-4.576z" fill="#6fa4d8"/></g><g><path d="m38 30h-1v-5.5c0-.276.224-.5.5-.5.276 0 .5.224.5.5z" fill="#5c76b2"/></g></g></svg>