<svg id="Capa_1" enable-background="new 0 0 512 512" height="512" viewBox="0 0 512 512" width="512" xmlns="http://www.w3.org/2000/svg"><g><path d="m164.052 177.393-70.049-93.399c-4.98-6.621-3.633-16.025 3.003-20.991 6.606-4.966 16.011-3.662 20.991 3.003l70.049 93.398c4.98 6.621 3.633 16.025-3.003 20.991-6.64 4.98-16.04 3.624-20.991-3.002z" fill="#ff7b4a"/><path d="m256 150h-54.901l54.901 71.1 54.901-71.1z" fill="#ffbfab"/><path d="m256 150v71.1l54.901-71.1z" fill="#f89580"/><path d="m201.099 150h-5.099c-12.299 0-23.699 2.999-33.9 8.099-24.3 12.301-41.1 37.8-41.1 66.901v91c0 24.899 20.099 45 45 45h15l60-45 15-124.9z" fill="#5a344b"/><path d="m361 331v-30h-105-45l-30 30v123.699c-17.402 6.301-30 22.8-30 42.301 0 8.399 6.599 15 15 15h75l15-30 15 30h75c8.401 0 15-6.601 15-15 0-19.501-12.598-36-30-42.301v-93.699z" fill="#704c55"/><path d="m346 512c8.401 0 15-6.601 15-15 0-19.501-12.598-36-30-42.301v-93.699l30-30v-30h-105v181l15 30z" fill="#5a344b"/><path d="m326.957 180.396c-6.636-4.966-7.983-14.37-3.003-20.991l70.049-93.398c4.966-6.65 14.385-7.939 20.991-3.003 6.636 4.966 7.983 14.37 3.003 20.991l-70.049 93.398c-4.948 6.622-14.347 7.986-20.991 3.003z" fill="#ff435b"/><g><path d="m256 361c-8.284 0-15 6.714-15 15v136h15 15v-136c0-8.286-6.716-15-15-15z" fill="#5a344b"/><path d="m271 376c0-8.286-6.716-15-15-15v151h15z" fill="#49263c"/></g><path d="m329.482 60-28.482-15h-45-45l-28.482 15c-.989 4.849-1.518 9.864-1.518 15v30c0 5.136.529 10.151 1.518 15l28.482 15h45 45l28.482-15c.989-4.849 1.518-9.864 1.518-15v-30c0-5.136-.529-10.151-1.518-15z" fill="#ffe1ba"/><path d="m329.482 120c.989-4.849 1.518-9.864 1.518-15v-30c0-5.136-.529-10.151-1.518-15l-28.482-15h-45v90h45z" fill="#ffbfab"/><path d="m349.9 158.099c-10.201-5.1-21.601-8.099-33.9-8.099h-5.099l-54.901 41.208-69 51.791c-3.9 2.701-6 7.2-6 12.001v76h75 75v30h15c24.901 0 45-20.101 45-45v-91c0-29.101-16.8-54.6-41.1-66.901z" fill="#9b786f"/><path d="m331 361h15c24.901 0 45-20.101 45-45v-91c0-29.101-16.8-54.6-41.1-66.901-10.201-5.1-21.601-8.099-33.9-8.099h-5.099l-54.901 41.208v139.792h75z" fill="#704c55"/><g fill="#704c55"><path d="m182.518 120c6.969 34.191 37.266 60 73.482 60s66.513-25.809 73.482-60h-73.482z"/><path d="m329.482 60c-6.969-34.191-37.266-60-73.482-60s-66.513 25.809-73.482 60h73.482z"/></g><path d="m256 0v60h73.482c-6.969-34.191-37.266-60-73.482-60z" fill="#5a344b"/><path d="m329.482 120h-73.482v60c36.216 0 66.513-25.809 73.482-60z" fill="#5a344b"/><g><path d="m256 361c-8.284 0-15 6.714-15 15v136h15 15v-136c0-8.286-6.716-15-15-15z" fill="#5a344b"/><path d="m271 376c0-8.286-6.716-15-15-15v151h15z" fill="#49263c"/></g></g></svg>