<svg width="25" height="24" viewBox="0 0 25 24" fill="none" xmlns="http://www.w3.org/2000/svg">
<g clip-path="url(#clip0)">
<path d="M20.9688 18.0655L18.7048 14.8322C17.8963 13.6774 16.1582 13.7758 15.5405 14.9827C15.0902 15.8143 14.022 16.1321 13.1731 15.7799C11.2964 14.9429 9.09591 11.9232 8.96858 9.77518C8.82987 8.83972 9.59196 7.96191 10.5274 7.82323C11.8728 7.65559 12.5597 6.056 11.7511 4.90124L9.48714 1.66792C8.82297 0.842282 7.64498 0.63457 6.83665 1.20057L4.64261 2.73685C2.43126 4.3713 3.57536 9.93761 7.37563 15.365C11.1759 20.7923 15.9979 23.8694 18.3074 22.2522L20.5015 20.716C21.3271 20.0518 21.5349 18.8738 20.9688 18.0655Z" fill="white"/>
</g>
<defs>
<clipPath id="clip0">
<rect x="4.35754" y="0.232056" width="20" height="20" transform="rotate(10 4.35754 0.232056)" fill="white"/>
</clipPath>
</defs>
</svg>
