<svg id="Capa_1" enable-background="new 0 0 512 512" height="512" viewBox="0 0 512 512" width="512" xmlns="http://www.w3.org/2000/svg"><g><path d="m235.984 456.968 185.944-20.016v-50.04c0-51.39-24.041-99.717-63.979-130.912 39.938-31.194 63.979-79.521 63.979-130.912v-50.04l-185.944-20.016z" fill="#e1ebf0"/><path d="m256 75.048h-165.928v50.04c0 51.39 24.041 99.717 63.979 130.912-39.938 31.195-63.979 79.522-63.979 130.912v50.04h165.928z" fill="#fff5f5"/><path d="m376.195 436.952-105.195-116.082v-75.793c24.438-3.05 47.435-13.504 65.943-30.205 22.077-19.92 36.017-47.087 39.252-76.496v-.001h-120.195l-20.016 318.593z" fill="#ffb655"/><path d="m175.057 214.872c18.509 16.701 41.506 27.155 65.943 30.205v75.415l-108 116.46 123 20.016v-318.593h-120.194c3.234 29.409 17.173 56.576 39.251 76.497z" fill="#ffde55"/><path d="m235.984 497h185.944v-60.048h-165.928z" fill="#b4d2d7"/><path d="m235.984 15 20.016 60.048h165.928v-60.048z" fill="#b4d2d7"/><path d="m90.072 15h165.928v60.048h-165.928z" fill="#e1ebf0"/><path d="m90.072 436.952h165.928v60.048h-165.928z" fill="#e1ebf0"/><path d="m452 15h30v482h-30z" fill="#607882"/><path d="m30 15h30v482h-30z" fill="#87a0af"/><path d="m512 0h-256l-10.008 15 10.008 15h256z" fill="#323c3c"/><path d="m512 482h-256l-10.008 15 10.008 15h256z" fill="#323c3c"/><g fill="#495959"><path d="m0 0h256v30h-256z"/><path d="m0 482h256v30h-256z"/></g></g></svg>