<svg height="512" viewBox="0 0 512 512" width="512" xmlns="http://www.w3.org/2000/svg"><g id="Outline"><path d="m56 376h192v16h-192z"/><path d="m56 408h176v16h-176z"/><path d="m104 344h144v16h-144z"/><path d="m72 344h16v16h-16z"/><path d="m16 184v304a8 8 0 0 0 8 8h256a8 8 0 0 0 8-8v-304a8 8 0 0 0 -8-8h-109.04l2.247-1.926a8 8 0 0 0 2.793-6.074v-24a8 8 0 0 0 -8-8h-24v-40h56v-16h-64a8 8 0 0 0 -8 8v56a8 8 0 0 0 8 8h24v12.32l-48 41.144-48-41.144v-12.32h24a8 8 0 0 0 8-8v-80a16.019 16.019 0 0 1 16-16h88v-16h-88a32.036 32.036 0 0 0 -32 32v72h-24a8 8 0 0 0 -8 8v24a8 8 0 0 0 2.793 6.074l2.247 1.926h-29.04a8 8 0 0 0 -8 8zm16 8h39.707l35.086 30.074a8 8 0 0 0 10.414 0l35.086-30.074h119.707v288h-240z"/><path d="m488 328v-304a8 8 0 0 0 -8-8h-256a8 8 0 0 0 -8 8v136h16v-128h240v288h-39.707l-35.086-30.074a8 8 0 0 0 -10.414 0l-35.086 30.074h-47.707v16h29.04l-2.247 1.926a8 8 0 0 0 -2.793 6.074v24a8 8 0 0 0 8 8h24v40h-56v16h64a8 8 0 0 0 8-8v-56a8 8 0 0 0 -8-8h-24v-12.32l48-41.144 48 41.144v12.32h-24a8 8 0 0 0 -8 8v80a16.019 16.019 0 0 1 -16 16h-88v16h88a32.036 32.036 0 0 0 32-32v-72h24a8 8 0 0 0 8-8v-24a8 8 0 0 0 -2.793-6.074l-2.247-1.926h29.04a8 8 0 0 0 8-8z"/><path d="m240 240h-176a8 8 0 0 0 -8 8v64a8 8 0 0 0 8 8h176a8 8 0 0 0 8-8v-64a8 8 0 0 0 -8-8zm-8 64h-160v-48h160z"/><path d="m304 208h144v16h-144z"/><path d="m304 240h128v16h-128z"/><path d="m352 176h96v16h-96z"/><path d="m320 176h16v16h-16z"/><path d="m448 144v-64a8 8 0 0 0 -8-8h-176a8 8 0 0 0 -8 8v64a8 8 0 0 0 8 8h176a8 8 0 0 0 8-8zm-16-8h-160v-48h160z"/></g></svg>