<svg id="_x33_0" enable-background="new 0 0 64 64" height="512" viewBox="0 0 64 64" width="512" xmlns="http://www.w3.org/2000/svg"><g><g><g><path d="m12 42v20h-4c-3.31 0-6-2.69-6-6v-8c0-3.31 2.69-6 6-6z" fill="#aab2bd"/></g><g><path d="m61.3 50.71-12.8-8.38c-.16-.1-.32-.18-.5-.24v19.82c.18-.06.34-.14.5-.24l12.8-8.38c.44-.29.7-.77.7-1.29s-.26-1-.7-1.29z" fill="#aab2bd"/></g><g><path d="m24.93 53.9 1.15-1.16c.65-.65 1.62-.78 2.46-.43.02.01.03.01.04.02.84.34 1.42 1.12 1.42 2.03v1.64h4v-1.64c0-.91.58-1.69 1.42-2.03.01-.01.02-.01.04-.02.84-.35 1.81-.22 2.46.43l1.15 1.16 1.92-1.91.01.01h7v9.91c-.19.06-.39.09-.6.09h-31.4v-10h7l.02-.01z" fill="#b4dd7f"/></g><g><path d="m22.1 51.07.92.92-.02.01h-7v-10h4v4h1.64c.91 0 1.69.58 2.03 1.42.01.01.01.02.02.04.35.84.22 1.81-.43 2.46z" fill="#69d6f4"/></g><g><path d="m41 52-.01-.01.91-.92-1.16-1.15c-.65-.65-.78-1.62-.43-2.46.01-.02.01-.03.02-.04.34-.84 1.12-1.42 2.03-1.42h1.64v-4h3.4c.21 0 .41.03.6.09v9.91z" fill="#69d6f4"/></g><g><path d="m16 52v10h-4v-20h4z" fill="#ffeaa7"/></g><g><path d="m32 50c3.31 0 6-2.69 6-6s-2.69-6-6-6-6 2.69-6 6 2.69 6 6 6zm9.9 1.07-.91.92-1.92 1.91-1.15-1.16c-.65-.65-1.62-.78-2.46-.43-.02.01-.03.01-.04.02-.84.34-1.42 1.12-1.42 2.03v1.64h-4v-1.64c0-.91-.58-1.69-1.42-2.03-.01-.01-.02-.01-.04-.02-.84-.35-1.81-.22-2.46.43l-1.15 1.16-1.91-1.91-.92-.92 1.16-1.15c.65-.65.78-1.62.43-2.46-.01-.02-.01-.03-.02-.04-.34-.84-1.12-1.42-2.03-1.42h-1.64v-4h1.64c.87 0 1.66-.53 2-1.33l.05-.13c.36-.86.16-1.87-.51-2.53l-1.08-1.08 2.9-2.93 1.08 1.26c.65.65 1.62.78 2.46.43l.13-.05c.8-.34 1.33-1.13 1.33-2v-1.64h2 2v1.55c0 .93.56 1.77 1.42 2.12l.04.02c.84.35 1.81.22 2.46-.43l1.08-1.26 2.9 2.93-1.08 1.08c-.67.66-.87 1.67-.51 2.53l.02.04c.35.86 1.19 1.42 2.12 1.42h1.55v4h-1.64c-.91 0-1.69.58-2.03 1.42-.01.01-.01.02-.02.04-.35.84-.22 1.81.43 2.46z" fill="#ffc729"/></g><g><path d="m32 38c3.31 0 6 2.69 6 6s-2.69 6-6 6-6-2.69-6-6 2.69-6 6-6zm2 6c0-1.1-.9-2-2-2s-2 .9-2 2 .9 2 2 2 2-.9 2-2z" fill="#fcd770"/></g><g><path d="m17 10-4.33 3.65 1.66 5.35-4.33-3.3-4.33 3.3 1.66-5.35-4.33-3.65h5.35l1.65-5 1.65 5z" fill="#fcd770"/></g><g><path d="m40 3v6c0 .55-.45 1-1 1h-3v2.59c0 .78-.63 1.41-1.41 1.41-.38 0-.74-.15-1-.41l-3.59-3.59h-5c-.55 0-1-.45-1-1v-6c0-.55.45-1 1-1h14c.55 0 1 .45 1 1z" fill="#e6e9ed"/></g><g><path d="m60 9.33v.17c0 .96-.38 1.88-1.06 2.56l-5.94 5.94-5.94-5.94c-.68-.68-1.06-1.6-1.06-2.56v-.17c0-.85.34-1.67.94-2.27.68-.68 1.6-1.06 2.56-1.06s1.88.38 2.56 1.06l.94.94.94-.94c.68-.68 1.6-1.06 2.56-1.06s1.88.38 2.56 1.06c.6.6.94 1.42.94 2.27z" fill="#ff826e"/></g></g><g><path d="m53 19.414 6.646-6.646c.861-.86 1.354-2.051 1.354-3.268v-.172c0-1.124-.438-2.18-1.232-2.975-.874-.873-2.034-1.353-3.268-1.353s-2.394.48-3.268 1.354l-.232.232-.232-.232c-.874-.874-2.034-1.354-3.268-1.354s-2.394.48-3.268 1.354c-.794.794-1.232 1.85-1.232 2.974v.172c0 1.217.493 2.408 1.354 3.268zm-6-10.086c0-.589.229-1.144.646-1.561.496-.495 1.154-.767 1.854-.767s1.358.272 1.854.768l1.646 1.646 1.646-1.646c.991-.99 2.716-.99 3.707 0 .418.417.647.971.647 1.56v.172c0 .69-.28 1.366-.768 1.854l-5.232 5.232-5.232-5.232c-.488-.488-.768-1.164-.768-1.854z"/><path d="m27 5h2v2h-2z"/><path d="m31 5h2v2h-2z"/><path d="m35 5h2v2h-2z"/><path d="m25 11h4.586l3.293 3.294c.45.448 1.072.706 1.707.706 1.331 0 2.414-1.083 2.414-2.414v-1.586h2c1.103 0 2-.897 2-2v-6c0-1.103-.897-2-2-2h-14c-1.103 0-2 .897-2 2v6c0 1.103.897 2 2 2zm0-8h14l.001 6h-4.001v3.586c0 .338-.469.532-.707.293l-3.879-3.879h-5.414z"/><path d="m3.795 21.693 6.205-4.739 6.205 4.739-2.38-7.704 5.91-4.989h-7.36l-2.375-7.187-2.375 7.187h-7.36l5.91 4.989zm1.94-10.693h3.335l.93-2.813.93 2.813h3.335l-2.742 2.315.924 2.991-2.447-1.869-2.447 1.87.924-2.991z"/><path d="m32 47c1.654 0 3-1.346 3-3s-1.346-3-3-3-3 1.346-3 3 1.346 3 3 3zm0-4c.551 0 1 .448 1 1s-.449 1-1 1-1-.448-1-1 .449-1 1-1z"/><path d="m32 51c3.86 0 7-3.141 7-7s-3.14-7-7-7-7 3.141-7 7 3.14 7 7 7zm0-12c2.757 0 5 2.243 5 5s-2.243 5-5 5-5-2.243-5-5 2.243-5 5-5z"/><path d="m61.851 49.873-12.803-8.382c-.489-.321-1.058-.491-1.645-.491h-4.949c-.528 0-1.001-.314-1.22-.84-.207-.496-.094-1.063.287-1.441l1.792-1.784-3.313-3.347v-3.588c0-.552.449-1 1-1h10c1.654 0 3-1.346 3-3v-4h-2v4c0 .552-.449 1-1 1h-10c-1.654 0-3 1.346-3 3v3.631l-.79.92c-.342.343-.866.425-1.408.198-.487-.202-.802-.675-.802-1.203v-2.546h-2v-14h-2v14h-2v2.64c0 .472-.281.893-.718 1.075l-.125.052c-.501.21-1.025.128-1.318-.162l-.839-.976v-3.629c0-1.654-1.346-3-3-3h-10c-.551 0-1-.448-1-1v-4h-2v4c0 1.654 1.346 3 3 3h10c.551 0 1 .448 1 1v3.588l-3.312 3.346 1.791 1.783c.381.38.494.946.287 1.442l-.052.123c-.181.437-.603.718-1.075.718h-13.639c-3.86 0-7 3.141-7 7v8c0 3.859 3.14 7 7 7h39.403c.586 0 1.155-.17 1.644-.49l12.804-8.384c.719-.471 1.149-1.266 1.149-2.126s-.43-1.655-1.149-2.127zm-39.3-.663-1.797 1.79h-3.754v-8h2v4h2.639c.473 0 .909.313 1.128.842.21.502.128 1.025-.216 1.368zm-7.551 11.79h-2v-18h2zm2-8h5.615l2.317 2.316 1.858-1.868c.343-.343.865-.427 1.41-.197.494.204.8.63.8 1.109v2.64h6v-2.64c0-.479.307-.905.843-1.127.501-.21 1.026-.127 1.367.215l1.858 1.868 2.317-2.316h5.615v8h-30zm24.449-3.79c-.343-.343-.426-.866-.198-1.41.201-.486.637-.8 1.11-.8h2.639v-4h2v8h-3.754zm-16.889-8.156.052-.124c.521-1.248.238-2.673-.721-3.629l-.378-.376 1.438-1.452.423.489c.915.919 2.312 1.176 3.558.648l.122-.051c1.182-.492 1.946-1.638 1.946-2.919v-.64h2v.546c0 1.339.798 2.536 2.067 3.064 1.247.522 2.646.27 3.609-.701l.375-.436 1.437 1.451-.379.377c-.958.955-1.241 2.38-.705 3.666.515 1.235 1.712 2.033 3.05 2.033h.546v2h-.639c-1.285 0-2.445.799-2.972 2.068-.524 1.247-.27 2.644.648 3.558l.447.445-1.413 1.413-.445-.446c-.914-.918-2.312-1.173-3.592-.635-1.235.513-2.034 1.673-2.034 2.957v.64h-2v-.64c0-1.284-.799-2.444-2.067-2.971-1.249-.525-2.645-.271-3.56.648l-.444.446-1.413-1.413.447-.445c.918-.914 1.172-2.311.634-3.592-.513-1.234-1.673-2.033-2.958-2.033h-.639v-2h.639c1.281 0 2.427-.764 2.921-1.946zm-21.56 14.946v-8c0-2.757 2.243-5 5-5h3v18h-3c-2.757 0-5-2.243-5-5zm46 4.15v-16.299l6 3.928v8.442zm11.755-7.697-3.755 2.459v-5.824l3.754 2.458c.154.101.246.27.246.454s-.092.353-.245.453z"/></g></g></svg>