<svg width="176" height="42" viewBox="0 0 176 42" fill="none" xmlns="http://www.w3.org/2000/svg">
<path d="M61.6066 13.6967V25.309H60.6049L53.2152 15.8865V25.309H52V13.6967H53.0017L60.4079 23.1193V13.6967H61.6066Z" fill="#464748"/>
<path d="M75.5893 21.3111H68.3637C68.4294 22.2179 68.7743 22.9534 69.3983 23.5174C70.0223 24.0704 70.8106 24.3469 71.763 24.3469C72.2995 24.3469 72.7921 24.2528 73.241 24.0648C73.6898 23.8658 74.0785 23.5782 74.4069 23.2022L75.0638 23.9653C74.6806 24.4298 74.1989 24.7837 73.6187 25.027C73.0494 25.2703 72.4199 25.392 71.7302 25.392C70.8434 25.392 70.0552 25.2039 69.3655 24.8279C68.6867 24.4409 68.1557 23.91 67.7726 23.2354C67.3894 22.5608 67.1978 21.7977 67.1978 20.9461C67.1978 20.0945 67.3785 19.3315 67.7397 18.6568C68.112 17.9822 68.6155 17.4569 69.2505 17.0809C69.8964 16.7049 70.619 16.5169 71.4182 16.5169C72.2174 16.5169 72.9344 16.7049 73.5694 17.0809C74.2044 17.4569 74.7025 17.9822 75.0638 18.6568C75.425 19.3204 75.6057 20.0835 75.6057 20.9461L75.5893 21.3111ZM71.4182 17.5288C70.5861 17.5288 69.8855 17.7997 69.3162 18.3416C68.7579 18.8725 68.4404 19.5692 68.3637 20.4319H74.489C74.4124 19.5692 74.0894 18.8725 73.5201 18.3416C72.9618 17.7997 72.2611 17.5288 71.4182 17.5288Z" fill="#464748"/>
<path d="M82.0514 18.2919C82.3251 17.7057 82.7302 17.2634 83.2666 16.9648C83.814 16.6662 84.4873 16.5169 85.2865 16.5169V17.6615L85.0073 17.6449C84.0986 17.6449 83.387 17.9269 82.8725 18.4909C82.358 19.055 82.1007 19.8457 82.1007 20.8632V25.309H80.9347V16.5832H82.0514V18.2919Z" fill="#464748"/>
<path d="M98.1556 13V25.309H97.039V23.5838C96.6886 24.1699 96.2234 24.6178 95.6431 24.9275C95.0738 25.2371 94.4279 25.392 93.7054 25.392C92.8952 25.392 92.1617 25.2039 91.5049 24.8279C90.848 24.4519 90.3335 23.9266 89.9612 23.252C89.589 22.5774 89.4029 21.8087 89.4029 20.9461C89.4029 20.0835 89.589 19.3149 89.9612 18.6402C90.3335 17.9656 90.848 17.4458 91.5049 17.0809C92.1617 16.7049 92.8952 16.5169 93.7054 16.5169C94.406 16.5169 95.0355 16.6662 95.5939 16.9648C96.1631 17.2523 96.6284 17.6781 96.9897 18.2421V13H98.1556ZM93.8039 24.3469C94.406 24.3469 94.9479 24.2086 95.4296 23.9321C95.9223 23.6446 96.3055 23.2409 96.5792 22.7211C96.8638 22.2013 97.0061 21.6097 97.0061 20.9461C97.0061 20.2826 96.8638 19.6909 96.5792 19.1711C96.3055 18.6513 95.9223 18.2532 95.4296 17.9767C94.9479 17.6891 94.406 17.5454 93.8039 17.5454C93.1908 17.5454 92.638 17.6891 92.1453 17.9767C91.6636 18.2532 91.2805 18.6513 90.9958 19.1711C90.7221 19.6909 90.5853 20.2826 90.5853 20.9461C90.5853 21.6097 90.7221 22.2013 90.9958 22.7211C91.2805 23.2409 91.6636 23.6446 92.1453 23.9321C92.638 24.2086 93.1908 24.3469 93.8039 24.3469Z" fill="#464748"/>
<path d="M108.907 13.6967C110.374 13.6967 111.524 14.0506 112.356 14.7584C113.188 15.4662 113.604 16.4394 113.604 17.6781C113.604 18.9167 113.188 19.89 112.356 20.5977C111.524 21.2945 110.374 21.6429 108.907 21.6429H105.82V25.309H104.605V13.6967H108.907ZM108.875 20.5646C110.013 20.5646 110.883 20.3157 111.486 19.8181C112.088 19.3093 112.389 18.596 112.389 17.6781C112.389 16.738 112.088 16.0192 111.486 15.5215C110.883 15.0128 110.013 14.7584 108.875 14.7584H105.82V20.5646H108.875Z" fill="#464748"/>
<path d="M126.414 21.3111H119.189C119.254 22.2179 119.599 22.9534 120.223 23.5174C120.847 24.0704 121.635 24.3469 122.588 24.3469C123.124 24.3469 123.617 24.2528 124.066 24.0648C124.515 23.8658 124.903 23.5782 125.232 23.2022L125.889 23.9653C125.505 24.4298 125.024 24.7837 124.444 25.027C123.874 25.2703 123.245 25.392 122.555 25.392C121.668 25.392 120.88 25.2039 120.19 24.8279C119.512 24.4409 118.981 23.91 118.597 23.2354C118.214 22.5608 118.023 21.7977 118.023 20.9461C118.023 20.0945 118.203 19.3315 118.565 18.6568C118.937 17.9822 119.44 17.4569 120.075 17.0809C120.721 16.7049 121.444 16.5169 122.243 16.5169C123.042 16.5169 123.759 16.7049 124.394 17.0809C125.029 17.4569 125.527 17.9822 125.889 18.6568C126.25 19.3204 126.431 20.0835 126.431 20.9461L126.414 21.3111ZM122.243 17.5288C121.411 17.5288 120.71 17.7997 120.141 18.3416C119.583 18.8725 119.265 19.5692 119.189 20.4319H125.314C125.237 19.5692 124.914 18.8725 124.345 18.3416C123.787 17.7997 123.086 17.5288 122.243 17.5288Z" fill="#464748"/>
<path d="M135.29 25.392C134.458 25.392 133.708 25.2039 133.041 24.8279C132.373 24.4409 131.847 23.91 131.464 23.2354C131.081 22.5608 130.889 21.7977 130.889 20.9461C130.889 20.0945 131.081 19.3315 131.464 18.6568C131.847 17.9822 132.373 17.4569 133.041 17.0809C133.708 16.7049 134.458 16.5169 135.29 16.5169C136.122 16.5169 136.872 16.7049 137.54 17.0809C138.208 17.4569 138.728 17.9822 139.1 18.6568C139.483 19.3315 139.675 20.0945 139.675 20.9461C139.675 21.7977 139.483 22.5608 139.1 23.2354C138.728 23.91 138.208 24.4409 137.54 24.8279C136.872 25.2039 136.122 25.392 135.29 25.392ZM135.29 24.3469C135.903 24.3469 136.451 24.2086 136.932 23.9321C137.425 23.6446 137.808 23.2409 138.082 22.7211C138.356 22.2013 138.492 21.6097 138.492 20.9461C138.492 20.2826 138.356 19.6909 138.082 19.1711C137.808 18.6513 137.425 18.2532 136.932 17.9767C136.451 17.6891 135.903 17.5454 135.29 17.5454C134.677 17.5454 134.124 17.6891 133.632 17.9767C133.15 18.2532 132.767 18.6513 132.482 19.1711C132.208 19.6909 132.072 20.2826 132.072 20.9461C132.072 21.6097 132.208 22.2013 132.482 22.7211C132.767 23.2409 133.15 23.6446 133.632 23.9321C134.124 24.2086 134.677 24.3469 135.29 24.3469Z" fill="#464748"/>
<path d="M149.461 16.5169C150.271 16.5169 151.005 16.7049 151.662 17.0809C152.319 17.4458 152.833 17.9656 153.205 18.6402C153.578 19.3149 153.764 20.0835 153.764 20.9461C153.764 21.8198 153.578 22.594 153.205 23.2686C152.833 23.9432 152.319 24.4685 151.662 24.8445C151.016 25.2095 150.282 25.392 149.461 25.392C148.761 25.392 148.126 25.2482 147.556 24.9606C146.998 24.662 146.538 24.2307 146.177 23.6667V28.5273H145.011V16.5832H146.128V18.3085C146.478 17.7334 146.938 17.291 147.507 16.9814C148.087 16.6717 148.739 16.5169 149.461 16.5169ZM149.379 24.3469C149.981 24.3469 150.529 24.2086 151.021 23.9321C151.514 23.6446 151.897 23.2409 152.171 22.7211C152.456 22.2013 152.598 21.6097 152.598 20.9461C152.598 20.2826 152.456 19.6964 152.171 19.1877C151.897 18.6679 151.514 18.2642 151.021 17.9767C150.529 17.6891 149.981 17.5454 149.379 17.5454C148.766 17.5454 148.213 17.6891 147.721 17.9767C147.239 18.2642 146.856 18.6679 146.571 19.1877C146.297 19.6964 146.161 20.2826 146.161 20.9461C146.161 21.6097 146.297 22.2013 146.571 22.7211C146.856 23.2409 147.239 23.6446 147.721 23.9321C148.213 24.2086 148.766 24.3469 149.379 24.3469Z" fill="#464748"/>
<path d="M159.096 13H160.262V25.309H159.096V13Z" fill="#464748"/>
<path d="M173.984 21.3111H166.758C166.824 22.2179 167.169 22.9534 167.793 23.5174C168.417 24.0704 169.205 24.3469 170.157 24.3469C170.694 24.3469 171.186 24.2528 171.635 24.0648C172.084 23.8658 172.473 23.5782 172.801 23.2022L173.458 23.9653C173.075 24.4298 172.593 24.7837 172.013 25.027C171.444 25.2703 170.814 25.392 170.125 25.392C169.238 25.392 168.449 25.2039 167.76 24.8279C167.081 24.4409 166.55 23.91 166.167 23.2354C165.784 22.5608 165.592 21.7977 165.592 20.9461C165.592 20.0945 165.773 19.3315 166.134 18.6568C166.506 17.9822 167.01 17.4569 167.645 17.0809C168.291 16.7049 169.013 16.5169 169.812 16.5169C170.612 16.5169 171.329 16.7049 171.964 17.0809C172.599 17.4569 173.097 17.9822 173.458 18.6568C173.819 19.3204 174 20.0835 174 20.9461L173.984 21.3111ZM169.812 17.5288C168.98 17.5288 168.28 17.7997 167.711 18.3416C167.152 18.8725 166.835 19.5692 166.758 20.4319H172.883C172.807 19.5692 172.484 18.8725 171.914 18.3416C171.356 17.7997 170.655 17.5288 169.812 17.5288Z" fill="#464748"/>
<circle cx="31.7" cy="29" r="8" fill="#EBF0F2"/>
<path fill-rule="evenodd" clip-rule="evenodd" d="M31.6999 21.075C27.1808 21.6107 23.7 24.9547 23.7 29C23.7 33.0453 27.1808 36.3893 31.6999 36.9251C28.9497 35.0966 27.1779 32.2268 27.1779 29C27.1779 25.7733 28.9497 22.9034 31.6999 21.075Z" fill="#D3D7D9"/>
<circle cx="9.69995" cy="29" r="8" fill="#EBF0F2"/>
<path fill-rule="evenodd" clip-rule="evenodd" d="M9.69993 21.075C5.18083 21.6107 1.69995 24.9547 1.69995 29C1.69995 33.0453 5.18083 36.3893 9.69993 36.9251C6.94972 35.0966 5.17791 32.2268 5.17791 29C5.17791 25.7733 6.94972 22.9034 9.69993 21.075Z" fill="#D3D7D9"/>
<path fill-rule="evenodd" clip-rule="evenodd" d="M31.7 21.7C27.6683 21.7 24.4 24.9684 24.4 29C24.4 33.0317 27.6683 36.3 31.7 36.3C35.7317 36.3 39 33.0317 39 29C39 24.9684 35.7317 21.7 31.7 21.7ZM23 29C23 24.1952 26.8951 20.3 31.7 20.3C36.5049 20.3 40.4 24.1952 40.4 29C40.4 33.8049 36.5049 37.7001 31.7 37.7001C26.8951 37.7001 23 33.8049 23 29Z" fill="#464748"/>
<path fill-rule="evenodd" clip-rule="evenodd" d="M9.7 21.7C5.66832 21.7 2.4 24.9684 2.4 29C2.4 33.0317 5.66832 36.3 9.7 36.3C13.7317 36.3 17 33.0317 17 29C17 24.9684 13.7317 21.7 9.7 21.7ZM1 29C1 24.1952 4.89512 20.3 9.7 20.3C14.5049 20.3 18.4 24.1952 18.4 29C18.4 33.8049 14.5049 37.7001 9.7 37.7001C4.89512 37.7001 1 33.8049 1 29Z" fill="#464748"/>
<path fill-rule="evenodd" clip-rule="evenodd" d="M20.7 26.7C19.4297 26.7 18.4 27.7298 18.4 29H17C17 26.9566 18.6565 25.3 20.7 25.3C22.7435 25.3 24.4 26.9566 24.4 29H23C23 27.7298 21.9703 26.7 20.7 26.7Z" fill="#464748"/>
<path d="M8.69995 8.5C8.69995 6.567 7.13295 5 5.19995 5C3.26695 5 1.69995 6.567 1.69995 8.5V29" stroke="#464748" stroke-width="1.4"/>
<path d="M32.7 8.5C32.7 6.567 34.267 5 36.2 5C38.1329 5 39.7 6.567 39.7 8.5V28.5" stroke="#464748" stroke-width="1.4"/>
</svg>
