<svg width="100" height="100" viewBox="0 0 100 100" fill="none" xmlns="http://www.w3.org/2000/svg">
<path d="M18.75 65.625V96.875H12.5C7.32812 96.875 3.125 92.6719 3.125 87.5V75C3.125 69.8281 7.32812 65.625 12.5 65.625H18.75Z" fill="#AAB2BD"/>
<path d="M95.7812 79.2344L75.7812 66.1406C75.5312 65.9844 75.2812 65.8594 75 65.7656V96.7344C75.2812 96.6406 75.5312 96.5156 75.7812 96.3594L95.7812 83.2656C96.4687 82.8125 96.875 82.0625 96.875 81.25C96.875 80.4375 96.4687 79.6875 95.7812 79.2344Z" fill="#AAB2BD"/>
<path d="M38.9531 84.2188L40.75 82.4063C41.7656 81.3906 43.2813 81.1875 44.5938 81.7344C44.625 81.75 44.6406 81.75 44.6562 81.7656C45.9688 82.2969 46.875 83.5156 46.875 84.9375V87.5H53.125V84.9375C53.125 83.5156 54.0312 82.2969 55.3437 81.7656C55.3594 81.75 55.375 81.75 55.4062 81.7344C56.7187 81.1875 58.2344 81.3906 59.25 82.4063L61.0469 84.2188L64.0469 81.2344L64.0625 81.25H75V96.7344C74.7031 96.8281 74.3906 96.875 74.0625 96.875H25V81.25H35.9375L35.9688 81.2344L38.9531 84.2188Z" fill="#40596B"/>
<path d="M62.5 44.875V50.4813V66.5H38L37.5 50.4813V44.875C37.5 44.0125 36.7984 43.3125 35.9375 43.3125H20.3125C17.7281 43.3125 15.625 41.2094 15.625 38.625V32.375H18.75V38.625C18.75 39.4875 19.4516 40.1875 20.3125 40.1875H35.9375C38.5219 40.1875 40.625 42.2906 40.625 44.875V50.5453V63.5C41.0828 63.9531 43 63.5 43 63.5H45.3125V50.5625V46.4375H48.4375V24.5625H51.5625V46.4375H54.6875V50.4156V63.5H59.375V50.5484V44.875C59.375 42.2906 61.4781 40.1875 64.0625 40.1875H79.6875C80.5484 40.1875 81.25 39.4875 81.25 38.625V32.375H84.375V38.625C84.375 41.2094 82.2719 43.3125 79.6875 43.3125H64.0625C63.2016 43.3125 62.5 44.0125 62.5 44.875Z" fill="#40596B"/>
<path d="M34.5313 79.7969L35.9688 81.2344L35.9375 81.25H25V65.625H31.25V71.875H33.8125C35.2344 71.875 36.4531 72.7812 36.9844 74.0937C37 74.1094 37 74.125 37.0156 74.1562C37.5625 75.4687 37.3594 76.9844 36.3438 78L34.5313 79.7969Z" fill="#40596B"/>
<path d="M64.0625 81.25L64.0469 81.2344L65.4687 79.7969L63.6562 78C62.6406 76.9844 62.4375 75.4687 62.9844 74.1562C63 74.125 63 74.1094 63.0156 74.0937C63.5469 72.7812 64.7656 71.875 66.1875 71.875H68.75V65.625H74.0625C74.3906 65.625 74.7031 65.6719 75 65.7656V81.25H64.0625Z" fill="#40596B"/>
<path d="M25 81.25V96.875H18.75V65.625H25V81.25Z" fill="white"/>
<path d="M50 78.125C55.1719 78.125 59.375 73.9219 59.375 68.75C59.375 63.5781 55.1719 59.375 50 59.375C44.8281 59.375 40.625 63.5781 40.625 68.75C40.625 73.9219 44.8281 78.125 50 78.125ZM65.4688 79.7969L64.0469 81.2344L61.0469 84.2188L59.25 82.4063C58.2344 81.3906 56.7187 81.1875 55.4062 81.7344C55.375 81.75 55.3594 81.75 55.3437 81.7656C54.0312 82.2969 53.125 83.5156 53.125 84.9375V87.5H46.875V84.9375C46.875 83.5156 45.9688 82.2969 44.6562 81.7656C44.6406 81.75 44.625 81.75 44.5938 81.7344C43.2813 81.1875 41.7656 81.3906 40.75 82.4063L38.9531 84.2188L35.9688 81.2344L34.5313 79.7969L36.3438 78C37.3594 76.9844 37.5625 75.4687 37.0156 74.1562C37 74.125 37 74.1094 36.9844 74.0937C36.4531 72.7812 35.2344 71.875 33.8125 71.875H31.25V65.625H33.8125C35.1719 65.625 36.4062 64.7969 36.9375 63.5469L37.0156 63.3438C37.5781 62 37.2656 60.4219 36.2188 59.3906L34.5313 57.7031L39.0625 53.125L40.75 55.0937C41.7656 56.1094 43.2813 56.3125 44.5938 55.7656L44.7969 55.6875C46.0469 55.1562 46.875 53.9219 46.875 52.5625V50H50H53.125V52.4219C53.125 53.875 54 55.1875 55.3437 55.7344L55.4062 55.7656C56.7187 56.3125 58.2344 56.1094 59.25 55.0937L60.9375 53.125L65.4688 57.7031L63.7812 59.3906C62.7344 60.4219 62.4219 62 62.9844 63.3438L63.0156 63.4063C63.5625 64.75 64.875 65.625 66.3281 65.625H68.75V71.875H66.1875C64.7656 71.875 63.5469 72.7812 63.0156 74.0937C63 74.1094 63 74.125 62.9844 74.1562C62.4375 75.4687 62.6406 76.9844 63.6563 78L65.4688 79.7969Z" fill="#EC7063"/>
<path d="M50 59.375C55.1719 59.375 59.375 63.5781 59.375 68.75C59.375 73.9219 55.1719 78.125 50 78.125C44.8281 78.125 40.625 73.9219 40.625 68.75C40.625 63.5781 44.8281 59.375 50 59.375ZM53.125 68.75C53.125 67.0312 51.7188 65.625 50 65.625C48.2812 65.625 46.875 67.0312 46.875 68.75C46.875 70.4688 48.2812 71.875 50 71.875C51.7188 71.875 53.125 70.4688 53.125 68.75Z" fill="white"/>
<path d="M26.5625 15.625L19.7969 21.3281L22.3906 29.6875L15.625 24.5312L8.85938 29.6875L11.4531 21.3281L4.6875 15.625H13.0469L15.625 7.8125L18.2031 15.625H26.5625Z" fill="#FCD770"/>
<path d="M62.5 4.6875V14.0625C62.5 14.9219 61.7969 15.625 60.9375 15.625H56.25V19.6719C56.25 20.8906 55.2656 21.875 54.0469 21.875C53.4531 21.875 52.8906 21.6406 52.4844 21.2344L46.875 15.625H39.0625C38.2031 15.625 37.5 14.9219 37.5 14.0625V4.6875C37.5 3.82812 38.2031 3.125 39.0625 3.125H60.9375C61.7969 3.125 62.5 3.82812 62.5 4.6875Z" fill="#E6E9ED"/>
<path d="M93.75 14.5781V14.8438C93.75 16.3438 93.1562 17.7813 92.0937 18.8438L82.8125 28.125L73.5313 18.8438C72.4688 17.7813 71.875 16.3438 71.875 14.8438V14.5781C71.875 13.25 72.4062 11.9688 73.3437 11.0312C74.4062 9.96875 75.8438 9.375 77.3438 9.375C78.8438 9.375 80.2813 9.96875 81.3438 11.0312L82.8125 12.5L84.2812 11.0312C85.3437 9.96875 86.7812 9.375 88.2812 9.375C89.7812 9.375 91.2188 9.96875 92.2813 11.0312C93.2188 11.9688 93.75 13.25 93.75 14.5781Z" fill="#FF826E"/>
<path d="M42.1875 7.8125H45.3125V10.9375H42.1875V7.8125Z" fill="#40596B"/>
<path d="M48.4375 7.8125H51.5625V10.9375H48.4375V7.8125Z" fill="#40596B"/>
<path d="M54.6875 7.8125H57.8125V10.9375H54.6875V7.8125Z" fill="#40596B"/>
<path d="M50 73.4375C52.5844 73.4375 54.6875 71.3344 54.6875 68.75C54.6875 66.1656 52.5844 64.0625 50 64.0625C47.4156 64.0625 45.3125 66.1656 45.3125 68.75C45.3125 71.3344 47.4156 73.4375 50 73.4375ZM50 67.1875C50.8609 67.1875 51.5625 67.8875 51.5625 68.75C51.5625 69.6125 50.8609 70.3125 50 70.3125C49.1391 70.3125 48.4375 69.6125 48.4375 68.75C48.4375 67.8875 49.1391 67.1875 50 67.1875Z" fill="#40596B"/>
<path d="M50 79.6875C56.0313 79.6875 60.9375 74.7797 60.9375 68.75C60.9375 62.7203 56.0313 57.8125 50 57.8125C43.9688 57.8125 39.0625 62.7203 39.0625 68.75C39.0625 74.7797 43.9688 79.6875 50 79.6875ZM50 60.9375C54.3078 60.9375 57.8125 64.4422 57.8125 68.75C57.8125 73.0578 54.3078 76.5625 50 76.5625C45.6922 76.5625 42.1875 73.0578 42.1875 68.75C42.1875 64.4422 45.6922 60.9375 50 60.9375Z" fill="#40596B"/>
</svg>
