<svg width="100" height="100" viewBox="0 0 100 100" fill="none" xmlns="http://www.w3.org/2000/svg">
<g clip-path="url(#clip0)">
<path d="M60.8829 58.4869L58.8414 60.7368C56.9664 62.7764 54.2999 63.9638 51.5292 63.9638H48.4855C45.7378 63.9638 43.0504 62.7764 41.1733 60.7368L39.1338 58.4869C37.7151 56.9454 36.4255 55.2933 35.2777 53.56L35.2089 61.9993L50.0083 71.2676L64.8411 62.0075V53.3975C63.6621 55.1911 62.3412 56.8973 60.8829 58.4869Z" fill="#F1C69F"/>
<path d="M36.4382 58.1869C36.6048 58.4181 36.5819 58.4181 36.4153 58.1869H36.4382Z" fill="#F8B64C"/>
<path d="M63.5808 58.1869C63.4142 58.4181 63.3933 58.4181 63.5599 58.1869H63.5808Z" fill="#F8B64C"/>
<g opacity="0.1">
<g opacity="0.1">
<path opacity="0.1" d="M58.9829 60.5949C57.108 62.6573 54.4247 63.9635 51.6332 63.9635H48.5084C47.1563 63.9635 45.8419 63.6698 44.6126 63.1301L53.0269 69.384L64.843 62.003V53.4012C63.6952 55.1303 62.916 56.2365 61.5016 57.7989L58.9829 60.5949Z" fill="#40596B"/>
</g>
</g>
<path d="M34.8214 30.4942C35.1255 33.9815 33.434 36.9836 31.0382 37.1917C28.6445 37.4042 26.455 34.7418 26.1509 31.2504C25.8447 27.763 27.5383 24.761 29.9298 24.5528C32.3278 24.3423 34.5152 27.0025 34.8214 30.4942Z" fill="#F8B64C"/>
<path d="M73.8679 31.2504C73.5595 34.7419 71.3742 37.4023 68.9765 37.1917C66.585 36.9834 64.8891 33.9815 65.1975 30.4942C65.5016 27.0027 67.689 24.3423 70.0848 24.5528C72.4804 24.761 74.172 27.763 73.8679 31.2504Z" fill="#F8B64C"/>
<path d="M70.9449 37.8834C70.3178 41.402 69.2971 44.8415 67.7972 48.0726C66.0701 51.8453 63.7349 55.3848 60.8828 58.4888L58.8413 60.7387C56.9664 62.7802 54.2999 63.9657 51.5291 63.9657H48.4855C45.7378 63.9657 43.0504 62.7824 41.1733 60.7387L39.1337 58.4888C36.2797 55.3848 33.9464 51.8453 32.2194 48.0726C30.7382 44.8415 29.6966 41.4041 29.0716 37.8834C28.4883 34.4898 27.7592 24.2152 29.3216 18.6779C31.8631 9.71794 39.8212 3.2807 50.0083 3.02856C60.1975 3.2807 68.1554 9.71794 70.6949 18.6779C72.2554 24.2152 71.5261 34.4898 70.9449 37.8834Z" fill="#F1C69F"/>
<path d="M100 82.4441V99.6746H0.00408936V82.4441C0.00408936 78.4651 2.44149 74.884 6.14759 73.4485L35.2089 62.0115L50.002 71.2674L64.8411 62.0033L93.8752 73.4487C97.5647 74.9049 100 78.4651 100 82.4441Z" fill="#CDD6E0"/>
<path d="M70.5033 24.8383C69.1618 22.8924 67.266 20.63 67.2576 20.5863C66.4888 16.9405 62.6681 14.7594 59.1226 15.9074C57.3998 16.4657 54.5874 16.9157 50.0104 16.9157C45.4335 16.9157 42.6211 16.4554 40.8983 15.8949C37.3568 14.7428 33.532 16.9323 32.7633 20.5781C32.7549 20.6197 30.7446 23.0155 29.3988 25.0175C28.7154 26.03 28.4279 34.4525 28.4279 34.4525C23.8115 22.2655 29.3613 2.6788 42.244 0.722635C45.5688 0.218554 50.0124 0.335151 50.0124 0.335151C50.0124 0.335151 54.4497 0.220507 57.7683 0.722635C70.6553 2.67666 76.205 22.2718 71.5824 34.4609C71.5804 34.4607 71.2387 25.9007 70.5033 24.8383Z" fill="#40596B"/>
<path d="M35.211 62.0117L49.9917 71.2676L40.5505 83.2253L29.6384 64.1991L35.211 62.0117Z" fill="#F2F2F2"/>
<path d="M64.8411 62.0033L49.9895 71.2676L59.4266 83.2253L70.3387 64.2032L64.8411 62.0033Z" fill="#F2F2F2"/>
<path d="M55.1019 77.7359L49.998 84.1982L44.8919 77.7359L49.998 71.259L55.1019 77.7359Z" fill="#EC7063"/>
<path d="M57.7226 99.6765H42.3295L47.0209 79.0461H53.0291L57.7226 99.6765Z" fill="#EC7063"/>
<path d="M93.8483 73.4488C97.5566 74.8841 99.9939 78.4695 99.9939 82.4485V99.6768H50.0042L70.3555 64.2054L93.8483 73.4488Z" fill="#40596B"/>
<path d="M6.14565 73.4488C2.4374 74.8841 0 78.4693 0 82.4485V99.6768H49.9896L29.6384 64.2054L6.14565 73.4488Z" fill="#40596B"/>
<path d="M55.3872 28.439H44.3273V31.5888H55.3872V28.439Z" fill="#40596B"/>
<path d="M39.8025 38.5585H37.8859C32.9799 38.5585 28.9988 34.5795 28.9988 29.6713V28.438H48.6877V29.6713C48.6896 34.5795 44.7085 38.5585 39.8025 38.5585Z" fill="#40596B"/>
<path d="M62.1287 38.5585H60.2122C55.3061 38.5585 51.325 34.5795 51.325 29.6713V28.438H71.0139V29.6713C71.0137 34.5795 67.0347 38.5585 62.1287 38.5585Z" fill="#40596B"/>
</g>
<defs>
<clipPath id="clip0">
<rect width="100" height="100" fill="white"/>
</clipPath>
</defs>
</svg>
