<svg width="100" height="100" viewBox="0 0 100 100" fill="none" xmlns="http://www.w3.org/2000/svg">
<path d="M32.8125 68.75H23.4375H20.3125V62.625C20.3125 59.2344 21.2656 55.9844 22.9844 53.2188C24.7031 50.4375 27.1875 48.125 30.2188 46.6094C31.9375 45.75 33.7812 45.1719 35.6875 44.9062L40.625 44.2031L42.1875 54.6875L45.9062 52.4531L48.4375 56.25L45.3125 76.5625L50 82.8125L54.6875 76.5625L51.5625 56.25L54.0938 52.4531L57.8125 54.6875L59.375 44.2031L64.3125 44.9062C66.2188 45.1719 68.0625 45.75 69.7812 46.6094C72.8125 48.125 75.2969 50.4375 77.0156 53.2188C78.7344 55.9844 79.6875 59.2344 79.6875 62.625V68.75H76.5625H67.1875V96.875H32.8125V68.75Z" fill="#E6E9ED"/>
<path d="M51.5625 56.25L54.6875 76.5625L50 82.8125L45.3125 76.5625L48.4375 56.25H51.5625Z" fill="#ED5565"/>
<path d="M50 50L54.0938 52.4531L51.5625 56.25H48.4375L45.9062 52.4531L50 50Z" fill="#ED5565"/>
<path d="M43.75 43.75L50 50L45.9062 52.4531L42.1875 54.6875L40.625 44.2031L43.75 43.75Z" fill="#E6E9ED"/>
<path d="M54.0937 52.4531L50 50L56.25 43.75L59.375 44.2031L57.8125 54.6875L54.0937 52.4531Z" fill="#E6E9ED"/>
<path d="M67.1875 14.0625C67.1875 15.625 66.7969 17.5 66.4062 18.9531C66.0156 20.4219 65.625 21.5 65.625 21.5L65.6094 21.5156C64.7813 20.7656 63.7031 20.3125 62.5 20.3125H60.9375V18.75C60.9375 16.1562 58.8438 14.0625 56.25 14.0625C48.4375 14.0625 46.875 18.75 39.0625 20.3125H37.5C36.2969 20.3125 35.2031 20.7656 34.375 21.5156L33.0469 16.5312C32.8906 15.9219 32.8125 15.3125 32.8125 14.6875C32.8125 13.0937 33.3125 11.5937 34.1875 10.3437C35.0625 9.09375 36.3125 8.10938 37.8125 7.5625L48.0938 3.82812C49.3594 3.35938 50.6875 3.125 52.0312 3.125C53.8437 3.125 55.625 3.5625 57.2031 4.34375C58.7812 5.14062 60.1875 6.29687 61.2813 7.75L62.5 9.375C63.7969 9.375 64.9688 9.90625 65.8125 10.75C66.6562 11.5938 67.1875 12.7656 67.1875 14.0625Z" fill="#40596B"/>
<path d="M23.4375 68.75H32.8125V96.875H23.4375V68.75Z" fill="#F1C69F"/>
<path d="M67.1875 68.75H76.5625V96.875H67.1875V68.75Z" fill="#F1C69F"/>
<path d="M60.8125 29.6875C60.9063 29.1719 60.9375 28.6562 60.9375 28.125V20.3125H62.5C63.7031 20.3125 64.7813 20.7656 65.6094 21.5156C66.5781 22.3438 67.1875 23.6094 67.1875 25C67.1875 26.2969 66.6563 27.4688 65.8125 28.3125C64.9688 29.1563 63.7969 29.6875 62.5 29.6875H60.8281H60.8125Z" fill="#F1C69F"/>
<path d="M54.7969 37.9531L56.25 43.75L50 50L43.75 43.75L45.2031 37.9531C46.6406 38.6719 48.2656 39.0625 50 39.0625C51.7344 39.0625 53.3594 38.6719 54.7969 37.9531Z" fill="#F1C69F"/>
<path d="M60.9375 20.3125V28.125C60.9375 28.6562 60.9062 29.1719 60.8125 29.6875C60.4844 32.0938 59.375 34.2188 57.7344 35.8594C56.875 36.7188 55.8906 37.4219 54.7969 37.9531C53.3594 38.6719 51.7344 39.0625 50 39.0625C48.2656 39.0625 46.6406 38.6719 45.2031 37.9531C42.0156 36.4063 39.6875 33.3438 39.1875 29.6875C39.0937 29.1719 39.0625 28.6562 39.0625 28.125V20.3125C46.875 18.75 48.4375 14.0625 56.25 14.0625C58.8438 14.0625 60.9375 16.1562 60.9375 18.75V20.3125Z" fill="#F1C69F"/>
<path d="M39.0625 28.125C39.0625 28.6562 39.0938 29.1719 39.1875 29.6875H39.1719H37.5C36.2031 29.6875 35.0312 29.1563 34.1875 28.3125C33.3437 27.4688 32.8125 26.2969 32.8125 25C32.8125 23.6094 33.4062 22.3594 34.375 21.5156C35.2031 20.7656 36.2969 20.3125 37.5 20.3125H39.0625V28.125Z" fill="#F1C69F"/>
<path d="M10.9375 24.0844V67.1875H14.0625V24.0844L20.7703 30.7922L22.9797 28.5828L12.5 18.1031L2.02032 28.5828L4.22969 30.7922L10.9375 24.0844Z" fill="#EC7063"/>
<path d="M92.1875 70.3125H95.3125V73.4375H92.1875V70.3125Z" fill="#40596B"/>
<path d="M89.0625 73.4375H92.1875V76.5625H89.0625V73.4375Z" fill="#40596B"/>
<path d="M85.9375 24.0844V67.1875H89.0625V24.0844L95.7703 30.7922L97.9797 28.5828L87.5 18.1031L77.0203 28.5828L79.2297 30.7922L85.9375 24.0844Z" fill="#EC7063"/>
<path d="M54.6875 26.5625C55.5504 26.5625 56.25 25.8629 56.25 25C56.25 24.1371 55.5504 23.4375 54.6875 23.4375C53.8246 23.4375 53.125 24.1371 53.125 25C53.125 25.8629 53.8246 26.5625 54.6875 26.5625Z" fill="#A0754E"/>
<path d="M45.3125 26.5625C46.1754 26.5625 46.875 25.8629 46.875 25C46.875 24.1371 46.1754 23.4375 45.3125 23.4375C44.4496 23.4375 43.75 24.1371 43.75 25C43.75 25.8629 44.4496 26.5625 45.3125 26.5625Z" fill="#A0754E"/>
<path d="M95.3125 73.4375H98.4375V76.5625H95.3125V73.4375Z" fill="#40596B"/>
<path d="M92.1875 76.5625H95.3125V79.6875H92.1875V76.5625Z" fill="#40596B"/>
<path d="M84.375 85.9375H87.5V89.0625H84.375V85.9375Z" fill="#40596B"/>
<path d="M81.25 89.0625H84.375V92.1875H81.25V89.0625Z" fill="#40596B"/>
<path d="M87.5 89.0625H90.625V92.1875H87.5V89.0625Z" fill="#40596B"/>
<path d="M84.375 92.1875H87.5V95.3125H84.375V92.1875Z" fill="#40596B"/>
<path d="M4.6875 70.3125H7.8125V73.4375H4.6875V70.3125Z" fill="#40596B"/>
<path d="M7.8125 73.4375H10.9375V76.5625H7.8125V73.4375Z" fill="#40596B"/>
<path d="M1.5625 73.4375H4.6875V76.5625H1.5625V73.4375Z" fill="#40596B"/>
<path d="M4.6875 76.5625H7.8125V79.6875H4.6875V76.5625Z" fill="#40596B"/>
<path d="M12.5 85.9375H15.625V89.0625H12.5V85.9375Z" fill="#40596B"/>
<path d="M15.625 89.0625H18.75V92.1875H15.625V89.0625Z" fill="#40596B"/>
<path d="M9.375 89.0625H12.5V92.1875H9.375V89.0625Z" fill="#40596B"/>
<path d="M12.5 92.1875H15.625V95.3125H12.5V92.1875Z" fill="#40596B"/>
</svg>
