<svg width="100" height="100" viewBox="0 0 100 100" fill="none" xmlns="http://www.w3.org/2000/svg">
<g clip-path="url(#clip0)">
<path d="M88.0585 22.5227C88.0585 20.7306 86.9354 19.2039 85.3561 18.5989V1.50146C85.3561 0.67215 84.6832 0 83.8547 0C83.0254 0 82.3524 0.67215 82.3524 1.50146V18.5997C80.7732 19.2047 79.6501 20.7306 79.6501 22.5227C79.6501 24.3149 80.7732 25.8408 82.3524 26.4458V31.131C82.3524 31.9603 83.0254 32.6324 83.8547 32.6324C84.6832 32.6324 85.3561 31.9603 85.3561 31.131V26.4458C86.9354 25.8408 88.0585 24.3149 88.0585 22.5227Z" fill="#FFD664"/>
<path d="M86.8576 0H13.1836C12.3543 0 11.6821 0.67215 11.6821 1.50146C11.6821 2.33078 12.3543 3.00293 13.1836 3.00293H25.9964V22.1222H74.0448V3.00293H86.8576C87.6869 3.00293 88.3591 2.33078 88.3591 1.50146C88.3591 0.67215 87.6862 0 86.8576 0Z" fill="#40596B"/>
<path d="M38.0089 66.967L20.9091 71.7171C13.9771 73.6428 9.17969 79.9538 9.17969 87.1483V98.0469C9.17969 99.1257 10.054 100 11.1328 100H88.9084C89.9872 100 90.8615 99.1257 90.8615 98.0469V87.1483C90.8615 79.9538 86.0641 73.6428 79.1321 71.7171L62.0323 66.967H38.0089Z" fill="#DDF5FF"/>
<path d="M53.8239 81.3812L56.2271 93.3937L50.0206 100L43.8141 93.3937L46.2166 81.3812H53.8239Z" fill="#EC7063"/>
<path d="M90.8615 87.1491V98.0469C90.8615 99.1257 89.9872 100 88.9084 100H50.0206L61.8324 87.5878L67.8322 68.5784L79.1313 71.7179C86.0642 73.642 90.8615 79.9538 90.8615 87.1491Z" fill="#40596B"/>
<path d="M20.9091 71.7171L32.2083 68.5784L38.2088 87.5878L50.0206 100H11.1328C10.054 100 9.17969 99.1257 9.17969 98.0469V87.1483C9.17969 79.9538 13.9771 73.6428 20.9091 71.7171Z" fill="#40596B"/>
<path d="M57.2281 61.9622L50.0206 69.1689L42.8131 61.9622V50.5509H57.2281V61.9622Z" fill="#EAA76C"/>
<path d="M68.8393 22.1222H74.0448V30.13H68.8393V22.1222Z" fill="#FFD664"/>
<path d="M25.9964 22.1222H31.2019V30.13H25.9964V22.1222Z" fill="#FFD664"/>
<path d="M50.0206 22.1222H31.2019V28.7285H28.199C25.9872 28.7285 24.1951 30.5214 24.1951 32.7324V35.5354C24.1951 37.7464 25.9872 39.5393 28.199 39.5393H31.4415C32.8796 48.5054 40.6494 55.3551 50.0206 55.3551C60.4141 55.3551 68.8393 46.9299 68.8393 36.5364V22.1222H50.0206Z" fill="#F1C69F"/>
<path d="M50.0206 81.3812H53.8239L57.7278 76.8768L50.0206 69.1688L42.3126 76.8768L46.2166 81.3812H50.0206Z" fill="#EC7063"/>
<path d="M42.3126 76.8769L50.0206 69.1689L42.8131 61.9622L37.9082 67.0006L42.3126 76.8769Z" fill="#C1E9F4"/>
<path d="M57.7278 76.8769L50.0206 69.1689L57.2281 61.9622L62.1323 67.0006L57.7278 76.8769Z" fill="#C1E9F4"/>
<path d="M77.1477 93.7935V100H74.1447V93.7935C74.1447 92.9649 74.8177 92.292 75.6462 92.292C76.4748 92.292 77.1477 92.9649 77.1477 93.7935Z" fill="#494949"/>
<path d="M22.8935 100V93.7935C22.8935 92.9649 23.5657 92.292 24.395 92.292C25.2235 92.292 25.8965 92.9649 25.8965 93.7935V100H22.8935Z" fill="#494949"/>
</g>
<defs>
<clipPath id="clip0">
<rect width="100" height="100" fill="white"/>
</clipPath>
</defs>
</svg>
