<svg width="78" height="78" viewBox="0 0 78 78" fill="none" xmlns="http://www.w3.org/2000/svg">
<path d="M78 11.4258V66.5742C78 72.881 72.881 78 66.5742 78H48.1406L43.5703 73.4297H39L34.4297 78H11.4258C5.11899 78 0 72.881 0 66.5742V11.4258C0 5.11899 5.11899 0 11.4258 0H66.5742C72.881 0 78 5.11899 78 11.4258Z" fill="#2196F3"/>
<path d="M48.1406 27.4219V36.5625H61.8516L59.5664 50.2734H48.1406V78H34.4297V50.2734H25.2891V36.5625H34.4297V27.4219C34.4297 22.3487 37.2177 17.9153 41.2852 15.5391C43.296 14.3965 45.6728 13.7109 48.1406 13.7109H61.8516V27.4219H48.1406Z" fill="#ECECF1"/>
</svg>
