<svg width="120" height="120" viewBox="0 0 120 120" fill="none" xmlns="http://www.w3.org/2000/svg">
<g clip-path="url(#clip0)">
<path d="M106.853 40.9704C106.578 39.9465 105.906 39.0736 104.987 38.5444C104.067 38.0126 102.973 37.8687 101.948 38.1441C100.923 38.4201 100.05 39.0912 99.5208 40.0103L98.8543 41.1703C98.2209 40.8064 97.4118 41.0206 97.0415 41.6507L93.6553 47.4225L92.4954 46.7559C92.1881 46.5782 91.8223 46.53 91.4799 46.6225C91.1369 46.7155 90.8452 46.9408 90.6688 47.2493C90.3076 47.8866 90.5276 48.6963 91.1622 49.0622L92.3222 49.7287L80.9908 69.3653L78.1911 76.8445L76.858 79.3369C76.0776 80.6948 76.1609 82.3826 77.0715 83.6565L74.0721 87.3356L73.2324 85.2298C72.8535 84.2912 71.9767 83.6481 70.9684 83.5693C69.9595 83.4899 68.9928 83.9885 68.4728 84.8562L67.993 85.6692L67.54 80.3368C67.4358 79.0753 66.4588 78.0611 65.2025 77.9088C63.9455 77.7571 62.7556 78.5103 62.354 79.7106L59.0746 89.5487C58.8455 90.2446 59.2204 90.9945 59.9143 91.2288C60.0445 91.2893 60.1845 91.3258 60.3277 91.3349C60.9005 91.3369 61.4108 90.9717 61.5944 90.4288L64.8601 80.5906L65.3268 86.0025C65.4231 87.1572 66.2531 88.1174 67.3818 88.379C68.5105 88.6407 69.6783 88.1434 70.2726 87.1494L70.766 86.3358L71.5927 88.4291C71.9435 89.3112 72.737 89.9406 73.6763 90.0806C74.6156 90.2205 75.5581 89.8501 76.1518 89.1087L79.258 85.1764C79.6017 85.2663 79.9558 85.3112 80.3112 85.3099C81.74 85.321 83.0666 84.5685 83.7905 83.3363L85.1236 81.1101L90.2028 74.938L101.654 55.0611L102.814 55.7277C103.123 55.9047 103.348 56.197 103.44 56.5414C103.533 56.8831 103.484 57.2476 103.307 57.5542L97.9749 66.7929C97.7738 67.0962 97.7054 67.4685 97.7861 67.8239C97.8668 68.1787 98.0888 68.4853 98.4012 68.6721C98.7085 68.8505 99.0743 68.8986 99.4167 68.8062C99.7597 68.7131 100.051 68.4879 100.228 68.1793L105.56 58.9407C106.092 58.0209 106.236 56.9274 105.96 55.9015C105.684 54.8769 105.013 54.004 104.094 53.4748L102.934 52.8083L106.266 47.0358C106.63 46.4025 106.416 45.594 105.787 45.223L106.453 44.063C106.999 43.1289 107.144 42.0132 106.853 40.9704ZM101.827 41.3434C102.003 41.0349 102.296 40.809 102.641 40.7172C102.983 40.6326 103.345 40.6801 103.654 40.8507C103.963 41.0271 104.188 41.32 104.28 41.6637C104.365 42.0061 104.318 42.368 104.147 42.6765L103.48 43.8365L101.161 42.5034L101.827 41.3434ZM83.657 78.5643L82.9905 78.1776L81.0175 77.0307L82.9104 71.9652L87.1096 74.3912L83.657 78.5643ZM79.6577 82.4165C79.0946 82.024 78.9215 81.2689 79.258 80.6701L79.9246 79.5107L82.2438 80.8438L81.5773 81.9901C81.3905 82.3143 81.0767 82.5447 80.7116 82.6261C80.3464 82.7068 79.9643 82.6313 79.6577 82.4165ZM88.6295 72.2053L84.017 69.5391L94.6818 51.0618L99.2943 53.728L88.6295 72.2053ZM100.627 51.4218L96.0149 48.7556L98.6811 44.1431L103.294 46.8093L100.627 51.4218Z" fill="#EC7063"/>
<path d="M48.0361 81.7497L43.3175 86.456L40.4912 83.6296C39.9711 83.1128 39.1314 83.1128 38.6113 83.6296C38.3587 83.8802 38.2168 84.2207 38.2168 84.5761C38.2168 84.9315 38.3587 85.2726 38.6113 85.5225L41.4376 88.3489C41.9376 88.8449 42.6132 89.1228 43.3175 89.1222C44.0257 89.1261 44.7073 88.8481 45.2104 88.3489L49.916 83.6296C50.3691 83.1004 50.3385 82.3121 49.8464 81.82C49.3536 81.3273 48.5653 81.2967 48.0361 81.7497Z" fill="#EC7063"/>
<path d="M32.3324 85.3359C32.3324 91.5946 37.4058 96.6673 43.6638 96.6673C49.9219 96.6673 54.9952 91.5946 54.9952 85.3359C54.9952 84.5997 54.3983 84.0028 53.6621 84.0028C52.9259 84.0028 52.329 84.5997 52.329 85.3359C52.329 90.1216 48.4495 94.0011 43.6638 94.0011C38.8782 94.0011 34.9986 90.1216 34.9986 85.3359C34.9986 80.5503 38.8782 76.6707 43.6638 76.6707C45.5398 76.6655 47.3657 77.2741 48.8628 78.4042C49.4519 78.8461 50.2877 78.7264 50.729 78.1373C51.171 77.5482 51.0519 76.713 50.4628 76.2711C47.0291 73.696 42.4349 73.282 38.5963 75.2009C34.7571 77.1205 32.3324 81.0443 32.3324 85.3359Z" fill="#EC7063"/>
<path d="M74.9918 32.6782C75.728 32.6782 76.3249 32.0819 76.3249 31.3451C76.3249 30.6089 75.728 30.012 74.9918 30.012H40.3311C39.5949 30.012 38.998 30.6089 38.998 31.3451V36.6775C38.998 37.4143 39.5949 38.0106 40.3311 38.0106H74.9918C75.728 38.0106 76.3249 37.4143 76.3249 36.6775C76.3249 35.9413 75.728 35.3444 74.9918 35.3444H41.6642V32.6782H74.9918Z" fill="#EC7063"/>
<path d="M44.3304 40.6768C43.5942 40.6768 42.9973 41.2737 42.9973 42.0099C42.9973 42.7467 43.5942 43.343 44.3304 43.343H70.9925C71.7287 43.343 72.3256 42.7467 72.3256 42.0099C72.3256 41.2737 71.7287 40.6768 70.9925 40.6768H44.3304Z" fill="#EC7063"/>
<path d="M78.9911 50.0085H49.6628C48.9266 50.0085 48.3297 50.6054 48.3297 51.3416C48.3297 52.0785 48.9266 52.6748 49.6628 52.6748H78.9911C79.7273 52.6748 80.3242 52.0785 80.3242 51.3416C80.3242 50.6054 79.7273 50.0085 78.9911 50.0085Z" fill="#EC7063"/>
<path d="M65.6601 59.3402C65.6601 58.604 65.0632 58.0071 64.327 58.0071H37.6648C36.9286 58.0071 36.3317 58.604 36.3317 59.3402C36.3317 60.077 36.9286 60.6733 37.6648 60.6733H64.327C65.0632 60.6733 65.6601 60.077 65.6601 59.3402Z" fill="#EC7063"/>
<path d="M78.9912 58.0071H69.6594C68.9232 58.0071 68.3263 58.604 68.3263 59.3402C68.3263 60.077 68.9232 60.6733 69.6594 60.6733H78.9912C79.7274 60.6733 80.3243 60.077 80.3243 59.3402C80.3243 58.604 79.7274 58.0071 78.9912 58.0071Z" fill="#EC7063"/>
<path d="M50.9959 67.3388C51.7321 67.3388 52.329 66.7426 52.329 66.0057C52.329 65.2695 51.7321 64.6726 50.9959 64.6726H37.6648C36.9286 64.6726 36.3317 65.2695 36.3317 66.0057C36.3317 66.7426 36.9286 67.3388 37.6648 67.3388H50.9959Z" fill="#EC7063"/>
<path d="M56.3283 67.3388H65.6601C66.3963 67.3388 66.9932 66.7426 66.9932 66.0057C66.9932 65.2695 66.3963 64.6726 65.6601 64.6726H56.3283C55.5921 64.6726 54.9952 65.2695 54.9952 66.0057C54.9952 66.7426 55.5921 67.3388 56.3283 67.3388Z" fill="#EC7063"/>
<path d="M86.9898 83.3361C86.2536 83.3361 85.6567 83.933 85.6567 84.6692V98.0002C85.6567 98.7371 85.0598 99.3333 84.3236 99.3333H30.9993C30.2631 99.3333 29.6662 98.7371 29.6662 98.0002V26.0125C29.6662 25.2763 30.2631 24.6794 30.9993 24.6794H84.3236C85.0598 24.6794 85.6567 25.2763 85.6567 26.0125V51.0486C85.6567 51.7848 86.2536 52.3817 86.9898 52.3817C87.726 52.3817 88.3229 51.7848 88.3229 51.0486V26.0125C88.3229 23.8039 86.5322 22.0132 84.3236 22.0132H30.9993C28.7907 22.0132 27 23.8039 27 26.0125V98.0002C27 100.209 28.7907 102 30.9993 102H84.3236C86.5322 102 88.3229 100.209 88.3229 98.0002V84.6692C88.3229 83.933 87.726 83.3361 86.9898 83.3361Z" fill="#EC7063"/>
</g>
<rect opacity="0.5" x="1.5" y="1.5" width="117" height="117" rx="28.5" stroke="white" stroke-width="3"/>
<defs>
<clipPath id="clip0">
<rect x="27" y="22" width="80" height="80" fill="white"/>
</clipPath>
</defs>
</svg>
