<svg width="120" height="120" viewBox="0 0 120 120" fill="none" xmlns="http://www.w3.org/2000/svg">
<path d="M99 67.5H71.5C69.4325 67.5 67.75 69.1825 67.75 71.25V88.75C67.75 90.8175 69.4325 92.5 71.5 92.5H99C101.068 92.5 102.75 90.8175 102.75 88.75V71.25C102.75 69.1825 101.068 67.5 99 67.5ZM100.25 88.75C100.25 89.44 99.69 90 99 90H71.5C70.81 90 70.25 89.44 70.25 88.75V71.25C70.25 70.56 70.81 70 71.5 70H99C99.69 70 100.25 70.56 100.25 71.25V88.75Z" fill="#EC7063"/>
<path d="M94 72.5C91.9325 72.5 90.25 74.1825 90.25 76.25C90.25 76.725 90.3475 77.1763 90.51 77.595L87.1075 80.5113C86.5575 80.195 85.9288 80 85.25 80C84.3175 80 83.4738 80.355 82.8175 80.92L80.1837 79.415C80.2212 79.1988 80.25 78.9775 80.25 78.75C80.25 76.6825 78.5675 75 76.5 75C74.4325 75 72.75 76.6825 72.75 78.75C72.75 80.8175 74.4325 82.5 76.5 82.5C77.4325 82.5 78.2762 82.145 78.9325 81.58L81.5663 83.085C81.5288 83.3012 81.5 83.5225 81.5 83.75C81.5 85.8175 83.1825 87.5 85.25 87.5C87.3175 87.5 89 85.8175 89 83.75C89 83.275 88.9025 82.8237 88.74 82.405L92.1437 79.4887C92.6925 79.805 93.3213 80 94 80C96.0675 80 97.75 78.3175 97.75 76.25C97.75 74.1825 96.0675 72.5 94 72.5ZM76.5 80C75.81 80 75.25 79.44 75.25 78.75C75.25 78.06 75.81 77.5 76.5 77.5C77.19 77.5 77.75 78.06 77.75 78.75C77.75 79.44 77.19 80 76.5 80ZM85.25 85C84.56 85 84 84.44 84 83.75C84 83.06 84.56 82.5 85.25 82.5C85.94 82.5 86.5 83.06 86.5 83.75C86.5 84.44 85.94 85 85.25 85ZM94 77.5C93.31 77.5 92.75 76.94 92.75 76.25C92.75 75.56 93.31 75 94 75C94.69 75 95.25 75.56 95.25 76.25C95.25 76.94 94.69 77.5 94 77.5Z" fill="#EC7063"/>
<path d="M41.5 31.25C42.8787 31.25 44 32.3713 44 33.75H46.5C46.5 31.4262 44.9012 29.4863 42.75 28.9275V26.25H40.25V28.75H36.5V33.75C36.5 36.5075 38.7425 38.75 41.5 38.75C42.8787 38.75 44 39.8713 44 41.25V43.75H41.5C40.1212 43.75 39 42.6287 39 41.25H36.5C36.5 43.5737 38.0988 45.5138 40.25 46.0725V48.75H42.75V46.25H46.5V41.25C46.5 38.4925 44.2575 36.25 41.5 36.25C40.1212 36.25 39 35.1287 39 33.75V31.25H41.5Z" fill="#EC7063"/>
<path d="M74 43.75H69V58.75H91.5V36.25H84V38.75H79V41.25H74V43.75ZM71.5 46.25H74V56.25H71.5V46.25ZM86.5 38.75H89V56.25H86.5V38.75ZM84 41.25V56.25H81.5V41.25H84ZM79 43.75V56.25H76.5V43.75H79Z" fill="#EC7063"/>
<path d="M92.75 63.75C94.8175 63.75 96.5 62.0675 96.5 60V35C96.5 32.9325 94.8175 31.25 92.75 31.25H56.4738C53.9625 25.2363 48.06 21.25 41.5 21.25C32.54 21.25 25.25 28.54 25.25 37.5C25.25 46.46 32.54 53.75 41.5 53.75C45.15 53.75 48.66 52.4963 51.5 50.2675V60C51.5 62.0675 53.1825 63.75 55.25 63.75H56.5V68.75C56.5 70.1287 55.3787 71.25 54 71.25H47.6112C49.2375 69.66 50.25 67.4475 50.25 65C50.25 60.1763 46.3237 56.25 41.5 56.25C36.6763 56.25 32.75 60.1763 32.75 65C32.75 67.6538 33.9425 70.0312 35.815 71.6375C29.7662 73.08 25.25 78.5163 25.25 85V98.75H51.5V83.8588C51.5 82.9513 52.1475 82.175 53.0388 82.0125L57.0375 81.285C61.7962 80.4212 65.25 76.2825 65.25 71.4475V63.75H92.75ZM41.5 51.25C33.9187 51.25 27.75 45.0812 27.75 37.5C27.75 29.9187 33.9187 23.75 41.5 23.75C46.7962 23.75 51.5837 26.8225 53.8587 31.525C52.4787 32.0788 51.5 33.425 51.5 35V46.8913C48.8988 49.6588 45.2862 51.25 41.5 51.25ZM42.7125 84.52L41.5 85.7325L40.2875 84.52L41.0563 73.75H41.945L42.7125 84.52ZM35.25 65C35.25 61.5537 38.0538 58.75 41.5 58.75C44.9463 58.75 47.75 61.5537 47.75 65C47.75 68.4463 44.9463 71.25 41.5 71.25C38.0538 71.25 35.25 68.4463 35.25 65ZM62.75 71.4475C62.75 75.0737 60.16 78.1775 56.5912 78.8263L52.5925 79.5525C50.5113 79.9312 49 81.7425 49 83.8588V96.25H34V80H31.5V96.25H27.75V85C27.75 78.9487 32.555 74.0125 38.5487 73.7725L37.7125 85.4788L41.5 89.2663L45.2875 85.4788L44.45 73.75H54C56.7575 73.75 59 71.5075 59 68.75V58.125C59 57.0913 59.8413 56.25 60.875 56.25C61.9087 56.25 62.75 57.0913 62.75 58.125V71.4475ZM60.875 53.75C58.4625 53.75 56.5 55.7125 56.5 58.125V61.25H55.25C54.56 61.25 54 60.69 54 60V35C54 34.31 54.56 33.75 55.25 33.75H92.75C93.44 33.75 94 34.31 94 35V60C94 60.69 93.44 61.25 92.75 61.25H65.25V58.125C65.25 55.7125 63.2875 53.75 60.875 53.75Z" fill="#EC7063"/>
<path d="M56.5 36.25H59V38.75H56.5V36.25Z" fill="#EC7063"/>
<path d="M61.5 36.25H64V38.75H61.5V36.25Z" fill="#EC7063"/>
<path d="M66.5 36.25H69V38.75H66.5V36.25Z" fill="#EC7063"/>
<path d="M56.5 41.25H66.5V43.75H56.5V41.25Z" fill="#EC7063"/>
<path d="M56.5 46.25H66.5V48.75H56.5V46.25Z" fill="#EC7063"/>
<rect opacity="0.5" x="1.5" y="1.5" width="117" height="117" rx="28.5" stroke="white" stroke-width="3"/>
</svg>
