<svg width="32" height="32" viewBox="0 0 32 32" fill="none" xmlns="http://www.w3.org/2000/svg">
<path d="M14.757 24.3209C14.1723 24.3209 13.7457 24.2879 13.608 24.2755C13.4341 24.2572 13.2743 24.1712 13.1631 24.0361C13.052 23.901 12.9982 23.7275 13.0136 23.5531C13.0289 23.3787 13.1121 23.2173 13.2452 23.1038C13.3783 22.9902 13.5506 22.9335 13.725 22.9459C14.936 23.0507 18.323 23.018 19.4357 21.611C19.4899 21.5419 19.5572 21.4842 19.6337 21.4412C19.7103 21.3982 19.7945 21.3708 19.8817 21.3605C19.9688 21.3502 20.0571 21.3572 20.1416 21.3812C20.226 21.4051 20.3049 21.4455 20.3737 21.5001C20.4425 21.5546 20.4998 21.6222 20.5425 21.699C20.5851 21.7758 20.6122 21.8602 20.6222 21.9475C20.6322 22.0348 20.6248 22.1232 20.6006 22.2077C20.5764 22.2921 20.5357 22.3709 20.481 22.4396C19.192 24.0696 16.3713 24.3209 14.757 24.3209V24.3209Z" fill="white" stroke="white" stroke-width="1.5" stroke-linecap="round"/>
<path d="M22.9333 11.3042C23.3936 11.3042 23.7667 10.9306 23.7667 10.4698C23.7667 10.009 23.3936 9.63547 22.9333 9.63547C22.4731 9.63547 22.1 10.009 22.1 10.4698C22.1 10.9306 22.4731 11.3042 22.9333 11.3042Z" fill="white" stroke="white" stroke-width="1.5" stroke-linecap="round"/>
<path d="M9.6 11.3042C10.0602 11.3042 10.4333 10.9306 10.4333 10.4698C10.4333 10.009 10.0602 9.63547 9.6 9.63547C9.13976 9.63547 8.76666 10.009 8.76666 10.4698C8.76666 10.9306 9.13976 11.3042 9.6 11.3042Z" fill="white" stroke="white" stroke-width="1.5" stroke-linecap="round"/>
<path d="M30.493 12.254C30.63 11.8505 30.6667 11.419 30.6667 10.9704V7.92505C30.6667 5.72239 28.95 3.96192 26.75 3.96192H24.9443C22.447 1.9595 19.352 1 16 1C12.6583 1 9.57333 1.9595 7.08 3.96192H5C2.8 3.96192 1 5.72239 1 7.92505V10.9704C1 11.5705 1.13733 12.1385 1.37633 12.6508C1.12699 13.7453 1.00076 14.8642 1 15.9868C1 24.2812 7.71567 31 16 31C24.2843 31 31 24.2732 31 15.9791C31 14.6936 30.7963 13.4447 30.493 12.254V12.254ZM26.75 4.96313C28.4043 4.96313 29.6667 6.26871 29.6667 7.92505V9.97287C29 8.0442 27.676 6.29808 26.15 4.96313H26.75ZM29.4813 12.2269C29.0097 13.2679 27.964 13.974 26.75 13.974H21.6667C20.0123 13.974 18.6667 12.6267 18.6667 10.9704V7.92505C18.6667 6.26871 20.0123 4.96313 21.6667 4.96313H24.5917C26.9227 6.63182 28.6643 9.30239 29.4813 12.2269ZM16 2.00121C18.6027 2.00121 21.04 2.62697 23.13 3.96192H21.6667C19.4667 3.96192 17.6667 5.72239 17.6667 7.92505V9.15454C16.332 8.38027 14.9347 8.74872 14 9.28937V7.92505C14 5.72239 12.2833 3.96192 10.0833 3.96192H8.89667C10.9807 2.62697 13.4083 2.00121 16 2.00121ZM7.42467 4.96313H10.0833C11.7377 4.96313 13 6.26871 13 7.92505V10.9704C13 12.6267 11.7377 13.974 10.0833 13.974H5C3.911 13.974 2.95867 13.409 2.43267 12.5373C3.21267 9.4776 5.00333 6.96556 7.42467 4.96313ZM2 7.92505C2 6.26871 3.34567 4.96313 5 4.96313H5.86667C4.17333 6.63182 2.84 8.41231 2 10.5966V7.92505ZM16 29.9934C8.28033 29.9934 2 23.7055 2 15.9765C2 15.2339 2.059 14.5054 2.17067 13.7938C2.54111 14.1679 2.98182 14.4649 3.46741 14.6676C3.953 14.8704 4.47387 14.9749 5 14.9753H10.0833C12.2833 14.9753 14 13.1731 14 10.9704V10.5092C14.121 10.4057 15.9913 8.85451 17.6667 10.3917V10.9704C17.6667 13.1731 19.4667 14.9753 21.6667 14.9753H26.75C27.9633 14.9753 29.0533 14.4253 29.7883 13.5642C29.925 14.3485 30 15.1535 30 15.9765C30 23.7055 23.7197 29.9934 16 29.9934Z" fill="white" stroke="white" stroke-width="1.5" stroke-linecap="round"/>
</svg>
